<svg id="visual" viewBox="0 0 900 900" width="900" height="900" xmlns="http://www.w3.org/2000/svg" xmlns:xlink="http://www.w3.org/1999/xlink" version="1.1"><rect x="0" y="0" width="900" height="900" fill="#082c3a"></rect><defs><linearGradient id="grad1_0" x1="0%" y1="100%" x2="100%" y2="0%"><stop offset="30%" stop-color="#082c3a" stop-opacity="1"></stop><stop offset="70%" stop-color="#082c3a" stop-opacity="1"></stop></linearGradient></defs><defs><linearGradient id="grad2_0" x1="0%" y1="100%" x2="100%" y2="0%"><stop offset="30%" stop-color="#082c3a" stop-opacity="1"></stop><stop offset="70%" stop-color="#082c3a" stop-opacity="1"></stop></linearGradient></defs><g transform="translate(900, 900)"><path d="M-572.8 0C-505.7 -69.5 -438.6 -139.1 -399.2 -230.5C-359.9 -321.9 -348.3 -435.3 -286.4 -496C-224.5 -556.7 -112.2 -564.7 0 -572.8L0 0Z" fill="#0c2934"></path></g><g transform="translate(0, 0)"><path d="M572.8 0C560.6 105.1 548.5 210.1 496 286.4C443.6 362.6 350.9 410 261.5 452.9C172.1 495.9 86.1 534.3 0 572.8L0 0Z" fill="#0c2934"></path></g></svg>