<svg xmlns="http://www.w3.org/2000/svg" version="1.1" xmlns:xlink="http://www.w3.org/1999/xlink" xmlns:svgjs="http://svgjs.com/svgjs" width="1440" height="560" preserveAspectRatio="none" viewBox="0 0 1440 560"><g mask="url(&quot;#SvgjsMask1000&quot;)" fill="none"><path d="M720 653.9C835.77 665.12 969.39 693.88 1053.17 613.17 1137.45 531.97 1121.47 396.25 1108.08 280 1096.48 179.53 1049.19 93.31 984.32 15.68 910.67-72.44 834.34-173.39 720-184.34 598.86-195.93 475.34-135.58 399.82-40.18 330.19 47.78 343.82 168.17 352.46 280 360.18 380.1 375.31 482.71 445.69 554.31 516.58 626.43 619.36 644.14 720 653.9" fill="#1c538e"></path><path d="M720 521.93C794.91 529.19 881.37 547.81 935.58 495.58 990.12 443.04 979.78 355.22 971.11 280 963.61 214.99 933 159.2 891.03 108.97 843.38 51.95 793.99-13.37 720-20.45 641.61-27.96 561.69 11.09 512.83 72.83 467.77 129.74 476.59 207.64 482.18 280 487.17 344.77 496.96 411.16 542.5 457.5 588.37 504.16 654.88 515.62 720 521.93" fill="#2774c6"></path><path d="M720 389.97C754.05 393.27 793.35 401.73 817.99 377.99 842.78 354.11 838.08 314.19 834.14 280 830.73 250.45 816.82 225.09 797.74 202.26 776.08 176.34 753.63 146.65 720 143.43 684.37 140.02 648.04 157.77 625.83 185.83 605.35 211.7 609.36 247.11 611.9 280 614.17 309.44 618.62 339.62 639.32 360.68 660.17 381.89 690.4 387.1 720 389.97" fill="#488fdb"></path></g><defs><mask id="SvgjsMask1000"><rect width="1440" height="560" fill="#ffffff"></rect></mask></defs></svg>