<svg xmlns="http://www.w3.org/2000/svg" version="1.1" xmlns:xlink="http://www.w3.org/1999/xlink" xmlns:svgjs="http://svgjs.com/svgjs" width="2400" height="800" preserveAspectRatio="none" viewBox="0 0 2400 800"><g mask="url(&quot;#SvgjsMask1159&quot;)" fill="none"><path d="M2440 800L0 800 L0 483.68Q49.98 413.66, 120 463.65Q249.68 393.32, 320 523Q410.85 413.85, 520 504.69Q598.15 382.84, 720 460.99Q801.65 342.64, 920 424.3Q1014.75 399.06, 1040 493.81Q1082.29 416.1, 1160 458.39Q1242.36 340.75, 1360 423.11Q1502.9 366.01, 1560 508.92Q1593.63 422.56, 1680 456.19Q1751.49 407.68, 1800 479.17Q1909.23 388.4, 2000 497.63Q2084.02 381.65, 2200 465.67Q2267.64 413.31, 2320 480.96Q2393.42 434.38, 2440 507.8z" fill="rgba(24, 47, 93, 1)"></path><path d="M2480 800L0 800 L0 599.85Q84.29 484.14, 200 568.43Q288.09 456.52, 400 544.61Q525.88 470.49, 600 596.36Q662.21 458.57, 800 520.77Q889.58 410.35, 1000 499.92Q1083.15 463.08, 1120 546.23Q1214.84 441.07, 1320 535.91Q1431.47 447.38, 1520 558.85Q1634.05 472.89, 1720 586.94Q1792.47 459.41, 1920 531.88Q1991.57 483.44, 2040 555.01Q2078.16 473.17, 2160 511.34Q2299.47 450.8, 2360 590.27Q2387.14 497.41, 2480 524.56z" fill="rgba(10, 36, 87, 1)"></path><path d="M2480 800L0 800 L0 654Q23.41 557.41, 120 580.83Q190.82 531.65, 240 602.48Q362.81 525.29, 440 648.09Q553.06 561.15, 640 674.22Q670.32 584.54, 760 614.85Q854.53 509.38, 960 603.92Q1072.63 516.55, 1160 629.18Q1194.51 543.69, 1280 578.2Q1390.98 489.18, 1480 600.17Q1590.68 510.86, 1680 621.54Q1752.38 573.92, 1800 646.3Q1832.71 559.01, 1920 591.72Q2055.26 526.98, 2120 662.23Q2157.35 579.58, 2240 616.92Q2329.14 586.06, 2360 675.2Q2404.61 599.82, 2480 644.43z" fill="rgba(22, 41, 69, 1)"></path><path d="M2520 800L0 800 L0 699.64Q71.67 651.31, 120 722.98Q193.61 676.59, 240 750.2Q333.96 644.16, 440 738.12Q458.95 637.07, 560 656.01Q678.9 574.91, 760 693.81Q872.28 606.09, 960 718.36Q1038.92 597.28, 1160 676.2Q1251.52 567.73, 1360 659.25Q1465.8 645.05, 1480 750.85Q1509.69 660.54, 1600 690.23Q1682.68 572.91, 1800 655.6Q1947.52 603.12, 2000 750.64Q2089.07 639.71, 2200 728.78Q2241.04 649.82, 2320 690.86Q2408.63 579.49, 2520 668.11z" fill="rgba(7, 55, 74, 1)"></path><path d="M2520 800L0 800 L0 805.29Q55.81 741.1, 120 796.9Q203.03 679.93, 320 762.96Q363.57 686.53, 440 730.09Q582.05 672.14, 640 814.19Q724.71 698.9, 840 783.61Q894.99 718.6, 960 773.59Q1082.56 696.15, 1160 818.72Q1205.75 744.47, 1280 790.22Q1348.37 658.59, 1480 726.95Q1624.49 671.44, 1680 815.93Q1702.5 718.43, 1800 740.93Q1923.64 664.57, 2000 788.21Q2065.96 734.17, 2120 800.13Q2231.85 711.98, 2320 823.83Q2373.55 677.38, 2520 730.93z" fill="rgba(7, 55, 74, 1)"></path></g><defs><mask id="SvgjsMask1159"><rect width="2400" height="800" fill="#ffffff"></rect></mask></defs></svg>