<svg xmlns="http://www.w3.org/2000/svg" version="1.1" xmlns:xlink="http://www.w3.org/1999/xlink" xmlns:svgjs="http://svgjs.com/svgjs" width="1440" height="560" preserveAspectRatio="none" viewBox="0 0 1440 560"><g mask="url(&quot;#SvgjsMask1013&quot;)" fill="none"><circle r="48.7512399441069" cx="589.12" cy="209.68" stroke="#037b0b" stroke-width="1.34"></circle><rect width="217.8" height="217.8" clip-path="url(&quot;#SvgjsClipPath1014&quot;)" x="1254.71" y="96.52" fill="url(#SvgjsPattern1015)" transform="rotate(206.7, 1363.61, 205.42)"></rect><path d="M457.04 455.69a5.6 5.6 0 1 0 11.18-0.69 5.6 5.6 0 1 0-11.18 0.69zM473.01 454.71a5.6 5.6 0 1 0 11.18-0.69 5.6 5.6 0 1 0-11.18 0.69zM488.98 453.73a5.6 5.6 0 1 0 11.18-0.68 5.6 5.6 0 1 0-11.18 0.68zM504.95 452.75a5.6 5.6 0 1 0 11.18-0.68 5.6 5.6 0 1 0-11.18 0.68z" fill="#037b0b"></path><circle r="55.79682561640014" cx="653.64" cy="551.67" fill="#037b0b"></circle><path d="M707.44 295.37a5.6 5.6 0 1 0 10.78 3.04 5.6 5.6 0 1 0-10.78-3.04zM722.84 299.72a5.6 5.6 0 1 0 10.78 3.05 5.6 5.6 0 1 0-10.78-3.05zM738.24 304.07a5.6 5.6 0 1 0 10.77 3.05 5.6 5.6 0 1 0-10.77-3.05zM753.63 308.43a5.6 5.6 0 1 0 10.78 3.05 5.6 5.6 0 1 0-10.78-3.05zM672.3 302.06a5.6 5.6 0 1 0 10.77 3.04 5.6 5.6 0 1 0-10.77-3.04zM687.69 306.41a5.6 5.6 0 1 0 10.78 3.05 5.6 5.6 0 1 0-10.78-3.05zM703.09 310.76a5.6 5.6 0 1 0 10.78 3.05 5.6 5.6 0 1 0-10.78-3.05zM718.49 315.12a5.6 5.6 0 1 0 10.77 3.04 5.6 5.6 0 1 0-10.77-3.04zM637.15 308.74a5.6 5.6 0 1 0 10.78 3.05 5.6 5.6 0 1 0-10.78-3.05zM652.55 313.1a5.6 5.6 0 1 0 10.77 3.05 5.6 5.6 0 1 0-10.77-3.05zM667.94 317.45a5.6 5.6 0 1 0 10.78 3.05 5.6 5.6 0 1 0-10.78-3.05zM683.34 321.81a5.6 5.6 0 1 0 10.78 3.04 5.6 5.6 0 1 0-10.78-3.04z" stroke="#d3b714" stroke-width="1"></path><rect width="82.8" height="82.8" clip-path="url(&quot;#SvgjsClipPath1016&quot;)" x="1235.68" y="31.83" fill="url(#SvgjsPattern1017)" transform="rotate(15.94, 1277.08, 73.23)"></rect><rect width="300" height="300" clip-path="url(&quot;#SvgjsClipPath1018&quot;)" x="901.25" y="-69.1" fill="url(#SvgjsPattern1019)" transform="rotate(73.15, 1051.25, 80.9)"></rect><path d="M708.08 237.27 L738.05 145.38L682.8695628631383 151.1295628631383z" stroke="#d3b714" stroke-width="1.99" stroke-dasharray="4, 4"></path><rect width="84" height="84" clip-path="url(&quot;#SvgjsClipPath1020&quot;)" x="320.98" y="286.05" fill="url(#SvgjsPattern1021)" transform="rotate(328.07, 362.98, 328.05)"></rect><path d="M677.95 116.28a5.6 5.6 0 1 0-5.51-9.75 5.6 5.6 0 1 0 5.51 9.75zM670.08 102.35a5.6 5.6 0 1 0-5.51-9.75 5.6 5.6 0 1 0 5.51 9.75zM662.21 88.42a5.6 5.6 0 1 0-5.51-9.75 5.6 5.6 0 1 0 5.51 9.75zM654.34 74.49a5.6 5.6 0 1 0-5.5-9.75 5.6 5.6 0 1 0 5.5 9.75z" fill="#037b0b"></path><rect width="60" height="60" clip-path="url(&quot;#SvgjsClipPath1022&quot;)" x="1152.26" y="-8.54" fill="url(#SvgjsPattern1023)" transform="rotate(236.82, 1182.26, 21.46)"></rect><rect width="130.2" height="130.2" clip-path="url(&quot;#SvgjsClipPath1024&quot;)" x="397.6" y="438.38" fill="url(#SvgjsPattern1025)" transform="rotate(7.71, 462.7, 503.48)"></rect></g><defs><mask id="SvgjsMask1013"><rect width="1440" height="560" fill="#ffffff"></rect></mask><pattern x="0" y="0" width="217.8" height="7.26" patternUnits="userSpaceOnUse" id="SvgjsPattern1015"><rect width="217.8" height="3.63" x="0" y="0" fill="#e73635"></rect><rect width="217.8" height="3.63" x="0" y="3.63" fill="rgba(0, 0, 0, 0)"></rect></pattern><clipPath id="SvgjsClipPath1014"><circle r="54.45" cx="1363.61" cy="205.42"></circle></clipPath><pattern x="0" y="0" width="82.8" height="8.28" patternUnits="userSpaceOnUse" id="SvgjsPattern1017"><rect width="82.8" height="4.14" x="0" y="0" fill="#037b0b"></rect><rect width="82.8" height="4.14" x="0" y="4.14" fill="rgba(0, 0, 0, 0)"></rect></pattern><clipPath id="SvgjsClipPath1016"><circle r="20.7" cx="1277.08" cy="73.23"></circle></clipPath><pattern x="0" y="0" width="6" height="6" patternUnits="userSpaceOnUse" id="SvgjsPattern1019"><path d="M0 6L3 0L6 6" stroke="#d3b714" fill="none"></path></pattern><clipPath id="SvgjsClipPath1018"><circle r="75" cx="1051.25" cy="80.9"></circle></clipPath><pattern x="0" y="0" width="84" height="6" patternUnits="userSpaceOnUse" id="SvgjsPattern1021"><rect width="84" height="3" x="0" y="0" fill="#e73635"></rect><rect width="84" height="3" x="0" y="3" fill="rgba(0, 0, 0, 0)"></rect></pattern><clipPath id="SvgjsClipPath1020"><circle r="21" cx="362.98" cy="328.05"></circle></clipPath><pattern x="0" y="0" width="6" height="6" patternUnits="userSpaceOnUse" id="SvgjsPattern1023"><path d="M3 1L3 5M1 3L5 3" stroke="#d3b714" fill="none" stroke-width="1.12"></path></pattern><clipPath id="SvgjsClipPath1022"><circle r="15" cx="1182.26" cy="21.46"></circle></clipPath><pattern x="0" y="0" width="130.2" height="13.02" patternUnits="userSpaceOnUse" id="SvgjsPattern1025"><rect width="130.2" height="6.51" x="0" y="0" fill="#037b0b"></rect><rect width="130.2" height="6.51" x="0" y="6.51" fill="rgba(0, 0, 0, 0)"></rect></pattern><clipPath id="SvgjsClipPath1024"><circle r="32.55" cx="462.7" cy="503.48"></circle></clipPath></defs></svg>