<svg xmlns="http://www.w3.org/2000/svg" version="1.1" xmlns:xlink="http://www.w3.org/1999/xlink" xmlns:svgjs="http://svgjs.com/svgjs" width="1440" height="560" preserveAspectRatio="none" viewBox="0 0 1440 560"><g mask="url(&quot;#SvgjsMask1002&quot;)" fill="none"><path d="M1240.43 524.96L1254.89 524.96L1254.89 539.42L1240.43 539.42z" stroke="#037b0b"></path><path d="M880.25 188.18a45.86 45.86 0 1 0-22.32 88.96z" stroke="rgba(142, 40, 105, 1)"></path><path d="M659.17 5.9 a6.29 6.29 0 1 0 12.58 0 a6.29 6.29 0 1 0 -12.58 0z" stroke="#d3b714"></path><path d="M361.09 548.34a55.9 55.9 0 1 0-111.25 11z" fill="#e73635"></path><path d="M933.94 89.8a42.03 42.03 0 1 0 43.37 72.01z" fill="rgba(67, 71, 112, 1)"></path><path d="M1252.87 134.51 a14.9 14.9 0 1 0 29.8 0 a14.9 14.9 0 1 0 -29.8 0z" stroke="#e73635"></path><path d="M302.3 232.54 a15.51 15.51 0 1 0 31.02 0 a15.51 15.51 0 1 0 -31.02 0z" stroke="#e73635"></path><path d="M390.79 371.68L413.51 371.68L413.51 398.33L390.79 398.33z" fill="#037b0b"></path><path d="M961 170.61L1012.37 170.61L1012.37 181.06L961 181.06z" fill="#e73635"></path><path d="M304.08 100.64L309.28 100.64L309.28 148.6L304.08 148.6z" stroke="#e73635"></path><path d="M32.3 68.32L32.38 68.32L32.38 121.67L32.3 121.67z" fill="#d3b714"></path><path d="M887.54 285.42 a30.19 30.19 0 1 0 60.38 0 a30.19 30.19 0 1 0 -60.38 0z" stroke="#037b0b"></path><path d="M943.02 33.58 a7.15 7.15 0 1 0 14.3 0 a7.15 7.15 0 1 0 -14.3 0z" fill="rgba(142, 40, 105, 1)"></path><path d="M798.1 94.09 a52.5 52.5 0 1 0 105 0 a52.5 52.5 0 1 0 -105 0z" fill="#d3b714"></path><path d="M331.62 434.24 a39.39 39.39 0 1 0 78.78 0 a39.39 39.39 0 1 0 -78.78 0z" fill="#d3b714"></path><path d="M227.66 435.7a48.36 48.36 0 1 0-92.78 27.34z" stroke="#037b0b"></path><path d="M496.23 205.2 a15.15 15.15 0 1 0 30.3 0 a15.15 15.15 0 1 0 -30.3 0z" stroke="rgba(142, 40, 105, 1)"></path><path d="M936.96 520.91 a24.14 24.14 0 1 0 48.28 0 a24.14 24.14 0 1 0 -48.28 0z" fill="#d3b714"></path><path d="M226.28 357.04 a21.05 21.05 0 1 0 42.1 0 a21.05 21.05 0 1 0 -42.1 0z" stroke="rgba(142, 40, 105, 1)"></path><path d="M854.05 511.48L881.77 511.48L881.77 539.2L854.05 539.2z" fill="#d3b714"></path><path d="M1217.32 53.95L1240.95 53.95L1240.95 77.58L1217.32 77.58z" stroke="#e73635"></path><path d="M578.93 33.12L588.73 33.12L588.73 42.92L578.93 42.92z" stroke="#037b0b"></path><path d="M391.8 244.27L429.85 244.27L429.85 282.32L391.8 282.32z" fill="#e73635"></path><path d="M375.87 494.26L379 494.26L379 513.97L375.87 513.97z" fill="#e73635"></path><path d="M1017.07 373.13L1024.79 373.13L1024.79 411.49L1017.07 411.49z" stroke="#037b0b"></path><path d="M1329.49 380.13a30.91 30.91 0 1 0 39.34 47.69z" stroke="rgba(142, 40, 105, 1)"></path><path d="M543.02 144.09L557.67 144.09L557.67 158.74L543.02 158.74z" fill="rgba(67, 71, 112, 1)"></path><path d="M898.37 549.54L921.64 549.54L921.64 605.23L898.37 605.23z" stroke="#d3b714"></path><path d="M910.56 28.87L930.87 28.87L930.87 83.33L910.56 83.33z" stroke="#e73635"></path><path d="M605.87 379.78L636.62 379.78L636.62 395.02L605.87 395.02z" fill="#e73635"></path><path d="M524.58 3.47 a8.74 8.74 0 1 0 17.48 0 a8.74 8.74 0 1 0 -17.48 0z" fill="#037b0b"></path><path d="M236.6 483.3L281.04 483.3L281.04 527.74L236.6 527.74z" fill="#e73635"></path><path d="M287.07 280.58 a14.23 14.23 0 1 0 28.46 0 a14.23 14.23 0 1 0 -28.46 0z" stroke="#d3b714"></path></g><defs><mask id="SvgjsMask1002"><rect width="1440" height="560" fill="#ffffff"></rect></mask></defs></svg>