<svg xmlns="http://www.w3.org/2000/svg" version="1.1" xmlns:xlink="http://www.w3.org/1999/xlink" xmlns:svgjs="http://svgjs.com/svgjs" width="2440" height="1000" preserveAspectRatio="none" viewBox="0 0 2440 1000"><g mask="url(&quot;#SvgjsMask1033&quot;)" fill="none"><path d="M-99.68 128.22C117.19 146.49 202.42 548.86 639.42 588.22 1076.43 627.58 1158.37 1053.27 1378.53 1074.41" stroke="rgba(51,121,194,0.58)" stroke-width="2"></path><path d="M-27.8 428.53C222.04 427.35 430.57 208.15 949.25 218.53 1467.94 228.91 1599.47 1060.46 1926.31 1126.86" stroke="rgba(51,121,194,0.58)" stroke-width="2"></path><path d="M-20.32 252.35C266.2 255.89 488.12 567.21 1077.33 582.35 1666.54 597.49 1870.6 1098.36 2174.98 1111.96" stroke="rgba(51,121,194,0.58)" stroke-width="2"></path><path d="M-327.91 459.26C5.57 463.58 440.19 839.24 947.84 849.26 1455.49 859.28 1410.62 1132.96 1585.71 1139.69" stroke="rgba(51,121,194,0.58)" stroke-width="2"></path><path d="M-412.72 271.64C-163.95 276.4 4.52 577.71 526.26 601.64 1048 625.57 1189.61 1163.62 1465.24 1186.93" stroke="rgba(51,121,194,0.58)" stroke-width="2"></path></g><defs><mask id="SvgjsMask1033"><rect width="2440" height="1000" fill="#ffffff"></rect></mask></defs></svg>