<svg xmlns="http://www.w3.org/2000/svg" version="1.1" xmlns:xlink="http://www.w3.org/1999/xlink" xmlns:svgjs="http://svgjs.com/svgjs" width="2440" height="1000" preserveAspectRatio="none" viewBox="0 0 2440 1000"><g mask="url(&quot;#SvgjsMask1034&quot;)" fill="none"><path d="M1308.36 1097.65C1461.12 1060.7 1362.92 680.52 1749.09 649.34 2135.26 618.16 2392.61 296.19 2630.55 289.34" stroke="rgba(51,121,194,0.58)" stroke-width="2"></path><path d="M1037.03 1157.89C1263.07 1151.94 1414.75 844.36 1878.22 825.54 2341.68 806.72 2481.31 389.39 2719.4 375.54" stroke="rgba(51,121,194,0.58)" stroke-width="2"></path><path d="M1120.98 1092.38C1364.52 952.83 1233.53 131.53 1684.62 121.36 2135.72 111.19 2517.57 457.69 2811.91 461.36" stroke="rgba(51,121,194,0.58)" stroke-width="2"></path><path d="M666.1 1137.91C943.84 1134.29 1164.8 823.62 1728.43 812.49 2292.05 801.36 2504.35 390.54 2790.75 382.49" stroke="rgba(51,121,194,0.58)" stroke-width="2"></path><path d="M523.35 1100.81C766.7 1038.95 839.82 388.04 1217.96 375.38 1596.11 362.72 1565.27 500.38 1912.58 500.38 2259.88 500.38 2430.75 375.88 2607.19 375.38" stroke="rgba(51,121,194,0.58)" stroke-width="2"></path></g><defs><mask id="SvgjsMask1034"><rect width="2440" height="1000" fill="#ffffff"></rect></mask></defs></svg>