<svg id="visual" viewBox="0 0 800 1200" width="800" height="1200" xmlns="http://www.w3.org/2000/svg" xmlns:xlink="http://www.w3.org/1999/xlink" version="1.1"><path d="M0 496L19 479.5C38 463 76 430 114.2 424.8C152.3 419.7 190.7 442.3 228.8 453C267 463.7 305 462.3 343 458.5C381 454.7 419 448.3 457 430.8C495 413.3 533 384.7 571.2 379.2C609.3 373.7 647.7 391.3 685.8 392C724 392.7 762 376.3 781 368.2L800 360L800 0L781 0C762 0 724 0 685.8 0C647.7 0 609.3 0 571.2 0C533 0 495 0 457 0C419 0 381 0 343 0C305 0 267 0 228.8 0C190.7 0 152.3 0 114.2 0C76 0 38 0 19 0L0 0Z" fill="#244b5b"></path><path d="M0 330L19 342C38 354 76 378 114.2 363C152.3 348 190.7 294 228.8 282.2C267 270.3 305 300.7 343 309.5C381 318.3 419 305.7 457 304.8C495 304 533 315 571.2 306.2C609.3 297.3 647.7 268.7 685.8 279.5C724 290.3 762 340.7 781 365.8L800 391L800 0L781 0C762 0 724 0 685.8 0C647.7 0 609.3 0 571.2 0C533 0 495 0 457 0C419 0 381 0 343 0C305 0 267 0 228.8 0C190.7 0 152.3 0 114.2 0C76 0 38 0 19 0L0 0Z" fill="#1d4352"></path><path d="M0 183L19 200.5C38 218 76 253 114.2 276.2C152.3 299.3 190.7 310.7 228.8 293.7C267 276.7 305 231.3 343 228.5C381 225.7 419 265.3 457 281.8C495 298.3 533 291.7 571.2 289.5C609.3 287.3 647.7 289.7 685.8 293.3C724 297 762 302 781 304.5L800 307L800 0L781 0C762 0 724 0 685.8 0C647.7 0 609.3 0 571.2 0C533 0 495 0 457 0C419 0 381 0 343 0C305 0 267 0 228.8 0C190.7 0 152.3 0 114.2 0C76 0 38 0 19 0L0 0Z" fill="#163b4a"></path><path d="M0 196L19 193.7C38 191.3 76 186.7 114.2 192.7C152.3 198.7 190.7 215.3 228.8 221.5C267 227.7 305 223.3 343 218.8C381 214.3 419 209.7 457 198C495 186.3 533 167.7 571.2 159.5C609.3 151.3 647.7 153.7 685.8 154.7C724 155.7 762 155.3 781 155.2L800 155L800 0L781 0C762 0 724 0 685.8 0C647.7 0 609.3 0 571.2 0C533 0 495 0 457 0C419 0 381 0 343 0C305 0 267 0 228.8 0C190.7 0 152.3 0 114.2 0C76 0 38 0 19 0L0 0Z" fill="#0f3342"></path><path d="M0 109L19 103.5C38 98 76 87 114.2 89.3C152.3 91.7 190.7 107.3 228.8 106.8C267 106.3 305 89.7 343 81.8C381 74 419 75 457 81.8C495 88.7 533 101.3 571.2 107.3C609.3 113.3 647.7 112.7 685.8 108.8C724 105 762 98 781 94.5L800 91L800 0L781 0C762 0 724 0 685.8 0C647.7 0 609.3 0 571.2 0C533 0 495 0 457 0C419 0 381 0 343 0C305 0 267 0 228.8 0C190.7 0 152.3 0 114.2 0C76 0 38 0 19 0L0 0Z" fill="#082c3a"></path></svg>