<svg id="visual" viewBox="0 0 900 568" width="900" height="568" xmlns="http://www.w3.org/2000/svg" xmlns:xlink="http://www.w3.org/1999/xlink" version="1.1"><path d="M0 506L21.5 507.7C43 509.3 86 512.7 128.8 517.5C171.7 522.3 214.3 528.7 257.2 530C300 531.3 343 527.7 385.8 525.2C428.7 522.7 471.3 521.3 514.2 519.3C557 517.3 600 514.7 642.8 513C685.7 511.3 728.3 510.7 771.2 515.2C814 519.7 857 529.3 878.5 534.2L900 539L900 0L878.5 0C857 0 814 0 771.2 0C728.3 0 685.7 0 642.8 0C600 0 557 0 514.2 0C471.3 0 428.7 0 385.8 0C343 0 300 0 257.2 0C214.3 0 171.7 0 128.8 0C86 0 43 0 21.5 0L0 0Z" fill="#001220"></path><path d="M0 469L21.5 470.8C43 472.7 86 476.3 128.8 480.3C171.7 484.3 214.3 488.7 257.2 487C300 485.3 343 477.7 385.8 474.5C428.7 471.3 471.3 472.7 514.2 473.7C557 474.7 600 475.3 642.8 475.3C685.7 475.3 728.3 474.7 771.2 473.7C814 472.7 857 471.3 878.5 470.7L900 470L900 0L878.5 0C857 0 814 0 771.2 0C728.3 0 685.7 0 642.8 0C600 0 557 0 514.2 0C471.3 0 428.7 0 385.8 0C343 0 300 0 257.2 0C214.3 0 171.7 0 128.8 0C86 0 43 0 21.5 0L0 0Z" fill="#041a29"></path><path d="M0 436L21.5 436.7C43 437.3 86 438.7 128.8 438C171.7 437.3 214.3 434.7 257.2 431.2C300 427.7 343 423.3 385.8 424.5C428.7 425.7 471.3 432.3 514.2 434.8C557 437.3 600 435.7 642.8 433.5C685.7 431.3 728.3 428.7 771.2 430.7C814 432.7 857 439.3 878.5 442.7L900 446L900 0L878.5 0C857 0 814 0 771.2 0C728.3 0 685.7 0 642.8 0C600 0 557 0 514.2 0C471.3 0 428.7 0 385.8 0C343 0 300 0 257.2 0C214.3 0 171.7 0 128.8 0C86 0 43 0 21.5 0L0 0Z" fill="#062233"></path><path d="M0 408L21.5 404.5C43 401 86 394 128.8 393.3C171.7 392.7 214.3 398.3 257.2 397.7C300 397 343 390 385.8 390C428.7 390 471.3 397 514.2 400.3C557 403.7 600 403.3 642.8 398.7C685.7 394 728.3 385 771.2 385C814 385 857 394 878.5 398.5L900 403L900 0L878.5 0C857 0 814 0 771.2 0C728.3 0 685.7 0 642.8 0C600 0 557 0 514.2 0C471.3 0 428.7 0 385.8 0C343 0 300 0 257.2 0C214.3 0 171.7 0 128.8 0C86 0 43 0 21.5 0L0 0Z" fill="#072b3d"></path><path d="M0 347L21.5 348.8C43 350.7 86 354.3 128.8 356.7C171.7 359 214.3 360 257.2 360.2C300 360.3 343 359.7 385.8 358.2C428.7 356.7 471.3 354.3 514.2 353.8C557 353.3 600 354.7 642.8 352.3C685.7 350 728.3 344 771.2 341.3C814 338.7 857 339.3 878.5 339.7L900 340L900 0L878.5 0C857 0 814 0 771.2 0C728.3 0 685.7 0 642.8 0C600 0 557 0 514.2 0C471.3 0 428.7 0 385.8 0C343 0 300 0 257.2 0C214.3 0 171.7 0 128.8 0C86 0 43 0 21.5 0L0 0Z" fill="#073346"></path><path d="M0 303L21.5 305C43 307 86 311 128.8 311.2C171.7 311.3 214.3 307.7 257.2 304.3C300 301 343 298 385.8 297.8C428.7 297.7 471.3 300.3 514.2 301.3C557 302.3 600 301.7 642.8 300.5C685.7 299.3 728.3 297.7 771.2 298.8C814 300 857 304 878.5 306L900 308L900 0L878.5 0C857 0 814 0 771.2 0C728.3 0 685.7 0 642.8 0C600 0 557 0 514.2 0C471.3 0 428.7 0 385.8 0C343 0 300 0 257.2 0C214.3 0 171.7 0 128.8 0C86 0 43 0 21.5 0L0 0Z" fill="#07374a"></path><path d="M0 249L21.5 253.5C43 258 86 267 128.8 271.3C171.7 275.7 214.3 275.3 257.2 270.3C300 265.3 343 255.7 385.8 252.8C428.7 250 471.3 254 514.2 256.2C557 258.3 600 258.7 642.8 260.8C685.7 263 728.3 267 771.2 265.8C814 264.7 857 258.3 878.5 255.2L900 252L900 0L878.5 0C857 0 814 0 771.2 0C728.3 0 685.7 0 642.8 0C600 0 557 0 514.2 0C471.3 0 428.7 0 385.8 0C343 0 300 0 257.2 0C214.3 0 171.7 0 128.8 0C86 0 43 0 21.5 0L0 0Z" fill="#07374a"></path><path d="M0 228L21.5 225.3C43 222.7 86 217.3 128.8 217.8C171.7 218.3 214.3 224.7 257.2 223C300 221.3 343 211.7 385.8 207.8C428.7 204 471.3 206 514.2 207.7C557 209.3 600 210.7 642.8 211.5C685.7 212.3 728.3 212.7 771.2 214.2C814 215.7 857 218.3 878.5 219.7L900 221L900 0L878.5 0C857 0 814 0 771.2 0C728.3 0 685.7 0 642.8 0C600 0 557 0 514.2 0C471.3 0 428.7 0 385.8 0C343 0 300 0 257.2 0C214.3 0 171.7 0 128.8 0C86 0 43 0 21.5 0L0 0Z" fill="#073346"></path><path d="M0 186L21.5 186.3C43 186.7 86 187.3 128.8 187.8C171.7 188.3 214.3 188.7 257.2 185.2C300 181.7 343 174.3 385.8 170.8C428.7 167.3 471.3 167.7 514.2 170.8C557 174 600 180 642.8 181.5C685.7 183 728.3 180 771.2 180C814 180 857 183 878.5 184.5L900 186L900 0L878.5 0C857 0 814 0 771.2 0C728.3 0 685.7 0 642.8 0C600 0 557 0 514.2 0C471.3 0 428.7 0 385.8 0C343 0 300 0 257.2 0C214.3 0 171.7 0 128.8 0C86 0 43 0 21.5 0L0 0Z" fill="#072b3d"></path><path d="M0 124L21.5 123.7C43 123.3 86 122.7 128.8 121.2C171.7 119.7 214.3 117.3 257.2 120.5C300 123.7 343 132.3 385.8 136.8C428.7 141.3 471.3 141.7 514.2 139.5C557 137.3 600 132.7 642.8 129C685.7 125.3 728.3 122.7 771.2 125.7C814 128.7 857 137.3 878.5 141.7L900 146L900 0L878.5 0C857 0 814 0 771.2 0C728.3 0 685.7 0 642.8 0C600 0 557 0 514.2 0C471.3 0 428.7 0 385.8 0C343 0 300 0 257.2 0C214.3 0 171.7 0 128.8 0C86 0 43 0 21.5 0L0 0Z" fill="#062233"></path><path d="M0 103L21.5 97.5C43 92 86 81 128.8 79.2C171.7 77.3 214.3 84.7 257.2 86.5C300 88.3 343 84.7 385.8 86.7C428.7 88.7 471.3 96.3 514.2 97C557 97.7 600 91.3 642.8 89C685.7 86.7 728.3 88.3 771.2 89C814 89.7 857 89.3 878.5 89.2L900 89L900 0L878.5 0C857 0 814 0 771.2 0C728.3 0 685.7 0 642.8 0C600 0 557 0 514.2 0C471.3 0 428.7 0 385.8 0C343 0 300 0 257.2 0C214.3 0 171.7 0 128.8 0C86 0 43 0 21.5 0L0 0Z" fill="#041a29"></path><path d="M0 52L21.5 47.5C43 43 86 34 128.8 31.8C171.7 29.7 214.3 34.3 257.2 38.3C300 42.3 343 45.7 385.8 48.8C428.7 52 471.3 55 514.2 55.5C557 56 600 54 642.8 51C685.7 48 728.3 44 771.2 44.2C814 44.3 857 48.7 878.5 50.8L900 53L900 0L878.5 0C857 0 814 0 771.2 0C728.3 0 685.7 0 642.8 0C600 0 557 0 514.2 0C471.3 0 428.7 0 385.8 0C343 0 300 0 257.2 0C214.3 0 171.7 0 128.8 0C86 0 43 0 21.5 0L0 0Z" fill="#001220"></path></svg>