<svg xmlns="http://www.w3.org/2000/svg" version="1.1" xmlns:xlink="http://www.w3.org/1999/xlink" xmlns:svgjs="http://svgjs.com/svgjs" width="1440" height="600" preserveAspectRatio="none" viewBox="0 0 1440 600"><g mask="url(&quot;#SvgjsMask1007&quot;)" fill="none"><path d="M1464 600L0 600 L0 303.93Q52.72 284.65, 72 337.38Q136.23 329.61, 144 393.83Q158.5 336.33, 216 350.84Q270.53 285.37, 336 339.9Q362.25 294.14, 408 320.39Q484.63 277.01, 528 353.64Q601.59 307.23, 648 380.81Q676.73 337.54, 720 366.27Q795.01 321.28, 840 396.29Q873.37 309.65, 960 343.02Q1001.96 264.98, 1080 306.94Q1176.52 283.46, 1200 379.97Q1222.08 330.05, 1272 352.12Q1287.47 295.59, 1344 311.06Q1414.84 261.9, 1464 332.74z" fill="#182f5d"></path><path d="M1512 600L0 600 L0 420.03Q16.01 364.04, 72 380.05Q140.91 328.96, 192 397.86Q259.9 345.76, 312 413.66Q403.8 385.46, 432 477.25Q453.78 427.03, 504 448.81Q532.03 356.84, 624 384.87Q704.01 344.88, 744 424.9Q794.22 355.12, 864 405.33Q925.59 394.91, 936 456.5Q983.13 383.63, 1056 430.76Q1078.73 381.49, 1128 404.22Q1175.83 332.05, 1248 379.87Q1309.77 369.64, 1320 431.41Q1340.53 379.94, 1392 400.47Q1474.13 362.61, 1512 444.74z" fill="#25467d"></path><path d="M1488 600L0 600 L0 550.26Q57.34 487.6, 120 544.94Q128.03 480.97, 192 489Q217.35 442.35, 264 467.7Q357.01 440.71, 384 533.72Q405.63 483.36, 456 504.99Q486.1 463.09, 528 493.19Q606.36 451.54, 648 529.9Q678.24 440.14, 768 470.38Q812.71 443.09, 840 487.79Q888.6 464.38, 912 512.98Q957.61 486.59, 984 532.2Q999.81 476.01, 1056 491.83Q1102.93 466.76, 1128 513.7Q1207.11 472.81, 1248 551.92Q1269.35 453.26, 1368 474.61Q1438.77 425.38, 1488 496.15z" fill="#356cb1"></path><path d="M1512 600L0 600 L0 543.17Q35.85 507.01, 72 542.86Q149.44 548.3, 144 625.73Q142.76 552.5, 216 551.26Q244.7 507.96, 288 536.66Q388.13 516.78, 408 616.91Q445.47 534.38, 528 571.84Q543.25 515.09, 600 530.34Q647.81 506.15, 672 553.96Q761.82 523.78, 792 613.6Q831 532.61, 912 571.61Q961.98 549.59, 984 599.57Q1014.03 557.6, 1056 587.63Q1060.94 520.57, 1128 525.51Q1169.6 495.11, 1200 536.7Q1252.1 516.8, 1272 568.89Q1348.23 525.12, 1392 601.35Q1423.95 513.3, 1512 545.24z" fill="white"></path></g><defs><mask id="SvgjsMask1007"><rect width="1440" height="600" fill="#ffffff"></rect></mask></defs></svg>