<svg xmlns="http://www.w3.org/2000/svg" version="1.1" xmlns:xlink="http://www.w3.org/1999/xlink" xmlns:svgjs="http://svgjs.com/svgjs" width="1440" height="1160" preserveAspectRatio="none" viewBox="0 0 1440 1160"><g mask="url(&quot;#SvgjsMask1005&quot;)" fill="none"><path d="M82.48 70.05L147.44 107.55L147.44 182.55L82.48 220.05L17.53 182.55L17.53 107.55zM82.48 520.05L147.44 557.55L147.44 632.55L82.48 670.05L17.53 632.55L17.53 557.55zM82.48 745.05L147.44 782.55L147.44 857.55L82.48 895.05L17.53 857.55L17.53 782.55zM82.48 970.05L147.44 1007.55L147.44 1082.55L82.48 1120.05L17.53 1082.55L17.53 1007.55zM17.53 1082.55L82.48 1120.05L82.48 1195.05L17.53 1232.55L-47.42 1195.05L-47.42 1120.05zM147.44 -42.45L212.39 -4.95L212.39 70.05L147.44 107.55L82.48 70.05L82.48 -4.95zM212.39 70.05L277.35 107.55L277.35 182.55L212.39 220.05L147.44 182.55L147.44 107.55zM147.44 182.55L212.39 220.05L212.39 295.05L147.44 332.55L82.48 295.05L82.48 220.05zM212.39 520.05L277.35 557.55L277.35 632.55L212.39 670.05L147.44 632.55L147.44 557.55zM212.39 745.05L277.35 782.55L277.35 857.55L212.39 895.05L147.44 857.55L147.44 782.55zM147.44 857.55L212.39 895.05L212.39 970.05L147.44 1007.55L82.48 970.05L82.48 895.05zM212.39 970.05L277.35 1007.55L277.35 1082.55L212.39 1120.05L147.44 1082.55L147.44 1007.55zM147.44 1082.55L212.39 1120.05L212.39 1195.05L147.44 1232.55L82.48 1195.05L82.48 1120.05zM342.3 70.05L407.25 107.55L407.25 182.55L342.3 220.05L277.35 182.55L277.35 107.55zM277.35 182.55L342.3 220.05L342.3 295.05L277.35 332.55L212.39 295.05L212.39 220.05zM342.3 295.05L407.25 332.55L407.25 407.55L342.3 445.05L277.35 407.55L277.35 332.55zM342.3 520.05L407.25 557.55L407.25 632.55L342.3 670.05L277.35 632.55L277.35 557.55zM342.3 745.05L407.25 782.55L407.25 857.55L342.3 895.05L277.35 857.55L277.35 782.55zM277.35 1082.55L342.3 1120.05L342.3 1195.05L277.35 1232.55L212.39 1195.05L212.39 1120.05zM472.21 70.05L537.16 107.55L537.16 182.55L472.21 220.05L407.25 182.55L407.25 107.55zM472.21 295.05L537.16 332.55L537.16 407.55L472.21 445.05L407.25 407.55L407.25 332.55zM472.21 745.05L537.16 782.55L537.16 857.55L472.21 895.05L407.25 857.55L407.25 782.55zM537.16 182.55L602.11 220.05L602.11 295.05L537.16 332.55L472.21 295.05L472.21 220.05zM602.11 295.05L667.07 332.55L667.07 407.55L602.11 445.05L537.16 407.55L537.16 332.55zM537.16 407.55L602.11 445.05L602.11 520.05L537.16 557.55L472.21 520.05L472.21 445.05zM537.16 632.55L602.11 670.05L602.11 745.05L537.16 782.55L472.21 745.05L472.21 670.05zM537.16 857.55L602.11 895.05L602.11 970.05L537.16 1007.55L472.21 970.05L472.21 895.05zM537.16 1082.55L602.11 1120.05L602.11 1195.05L537.16 1232.55L472.21 1195.05L472.21 1120.05zM732.02 70.05L796.98 107.55L796.98 182.55L732.02 220.05L667.07 182.55L667.07 107.55zM732.02 295.05L796.98 332.55L796.98 407.55L732.02 445.05L667.07 407.55L667.07 332.55zM732.02 520.05L796.98 557.55L796.98 632.55L732.02 670.05L667.07 632.55L667.07 557.55zM667.07 632.55L732.02 670.05L732.02 745.05L667.07 782.55L602.11 745.05L602.11 670.05zM796.97 407.55L861.93 445.05L861.93 520.05L796.97 557.55L732.02 520.05L732.02 445.05zM861.93 520.05L926.88 557.55L926.88 632.55L861.93 670.05L796.97 632.55L796.97 557.55zM796.97 632.55L861.93 670.05L861.93 745.05L796.97 782.55L732.02 745.05L732.02 670.05zM861.93 745.05L926.88 782.55L926.88 857.55L861.93 895.05L796.97 857.55L796.97 782.55zM796.97 857.55L861.93 895.05L861.93 970.05L796.97 1007.55L732.02 970.05L732.02 895.05zM796.97 1082.55L861.93 1120.05L861.93 1195.05L796.97 1232.55L732.02 1195.05L732.02 1120.05zM991.84 295.05L1056.79 332.55L1056.79 407.55L991.84 445.05L926.88 407.55L926.88 332.55zM926.88 632.55L991.84 670.05L991.84 745.05L926.88 782.55L861.93 745.05L861.93 670.05zM991.84 970.05L1056.79 1007.55L1056.79 1082.55L991.84 1120.05L926.88 1082.55L926.88 1007.55zM926.88 1082.55L991.84 1120.05L991.84 1195.05L926.88 1232.55L861.93 1195.05L861.93 1120.05zM1056.79 182.55L1121.74 220.05L1121.74 295.05L1056.79 332.55L991.84 295.05L991.84 220.05zM1121.74 520.05L1186.7 557.55L1186.7 632.55L1121.74 670.05L1056.79 632.55L1056.79 557.55zM1056.79 857.55L1121.74 895.05L1121.74 970.05L1056.79 1007.55L991.84 970.05L991.84 895.05zM1121.74 970.05L1186.7 1007.55L1186.7 1082.55L1121.74 1120.05L1056.79 1082.55L1056.79 1007.55zM1056.79 1082.55L1121.74 1120.05L1121.74 1195.05L1056.79 1232.55L991.84 1195.05L991.84 1120.05zM1251.65 70.05L1316.6 107.55L1316.6 182.55L1251.65 220.05L1186.7 182.55L1186.7 107.55zM1186.7 182.55L1251.65 220.05L1251.65 295.05L1186.7 332.55L1121.74 295.05L1121.74 220.05zM1186.7 407.55L1251.65 445.05L1251.65 520.05L1186.7 557.55L1121.74 520.05L1121.74 445.05zM1251.65 745.05L1316.6 782.55L1316.6 857.55L1251.65 895.05L1186.7 857.55L1186.7 782.55zM1186.7 857.55L1251.65 895.05L1251.65 970.05L1186.7 1007.55L1121.74 970.05L1121.74 895.05zM1316.61 182.55L1381.56 220.05L1381.56 295.05L1316.61 332.55L1251.65 295.05L1251.65 220.05zM1381.56 295.05L1446.51 332.55L1446.51 407.55L1381.56 445.05L1316.61 407.55L1316.61 332.55zM1316.61 407.55L1381.56 445.05L1381.56 520.05L1316.61 557.55L1251.65 520.05L1251.65 445.05zM1381.56 520.05L1446.51 557.55L1446.51 632.55L1381.56 670.05L1316.61 632.55L1316.61 557.55zM1316.61 632.55L1381.56 670.05L1381.56 745.05L1316.61 782.55L1251.65 745.05L1251.65 670.05zM1381.56 745.05L1446.51 782.55L1446.51 857.55L1381.56 895.05L1316.61 857.55L1316.61 782.55zM1381.56 970.05L1446.51 1007.55L1446.51 1082.55L1381.56 1120.05L1316.61 1082.55L1316.61 1007.55zM1316.61 1082.55L1381.56 1120.05L1381.56 1195.05L1316.61 1232.55L1251.65 1195.05L1251.65 1120.05zM1446.51 -42.45L1511.47 -4.95L1511.47 70.05L1446.51 107.55L1381.56 70.05L1381.56 -4.95zM1511.47 70.05L1576.42 107.55L1576.42 182.55L1511.47 220.05L1446.51 182.55L1446.51 107.55zM1446.51 632.55L1511.47 670.05L1511.47 745.05L1446.51 782.55L1381.56 745.05L1381.56 670.05zM1511.47 745.05L1576.42 782.55L1576.42 857.55L1511.47 895.05L1446.51 857.55L1446.51 782.55zM1446.51 857.55L1511.47 895.05L1511.47 970.05L1446.51 1007.55L1381.56 970.05L1381.56 895.05z" stroke="#03305d" stroke-width="2"></path><path d="M74.98 70.05 a7.5 7.5 0 1 0 15 0 a7.5 7.5 0 1 0 -15 0zM139.94 107.55 a7.5 7.5 0 1 0 15 0 a7.5 7.5 0 1 0 -15 0zM139.94 182.55 a7.5 7.5 0 1 0 15 0 a7.5 7.5 0 1 0 -15 0zM74.98 220.05 a7.5 7.5 0 1 0 15 0 a7.5 7.5 0 1 0 -15 0zM10.03 182.55 a7.5 7.5 0 1 0 15 0 a7.5 7.5 0 1 0 -15 0zM10.03 107.55 a7.5 7.5 0 1 0 15 0 a7.5 7.5 0 1 0 -15 0zM74.98 520.05 a7.5 7.5 0 1 0 15 0 a7.5 7.5 0 1 0 -15 0zM139.94 557.55 a7.5 7.5 0 1 0 15 0 a7.5 7.5 0 1 0 -15 0zM139.94 632.55 a7.5 7.5 0 1 0 15 0 a7.5 7.5 0 1 0 -15 0zM74.98 670.05 a7.5 7.5 0 1 0 15 0 a7.5 7.5 0 1 0 -15 0zM10.03 632.55 a7.5 7.5 0 1 0 15 0 a7.5 7.5 0 1 0 -15 0zM10.03 557.55 a7.5 7.5 0 1 0 15 0 a7.5 7.5 0 1 0 -15 0zM74.98 745.05 a7.5 7.5 0 1 0 15 0 a7.5 7.5 0 1 0 -15 0zM139.94 782.55 a7.5 7.5 0 1 0 15 0 a7.5 7.5 0 1 0 -15 0zM139.94 857.55 a7.5 7.5 0 1 0 15 0 a7.5 7.5 0 1 0 -15 0zM74.98 895.05 a7.5 7.5 0 1 0 15 0 a7.5 7.5 0 1 0 -15 0zM10.03 857.55 a7.5 7.5 0 1 0 15 0 a7.5 7.5 0 1 0 -15 0zM10.03 782.55 a7.5 7.5 0 1 0 15 0 a7.5 7.5 0 1 0 -15 0zM74.98 970.05 a7.5 7.5 0 1 0 15 0 a7.5 7.5 0 1 0 -15 0zM139.94 1007.55 a7.5 7.5 0 1 0 15 0 a7.5 7.5 0 1 0 -15 0zM139.94 1082.55 a7.5 7.5 0 1 0 15 0 a7.5 7.5 0 1 0 -15 0zM74.98 1120.05 a7.5 7.5 0 1 0 15 0 a7.5 7.5 0 1 0 -15 0zM10.03 1082.55 a7.5 7.5 0 1 0 15 0 a7.5 7.5 0 1 0 -15 0zM10.03 1007.55 a7.5 7.5 0 1 0 15 0 a7.5 7.5 0 1 0 -15 0zM74.98 1195.05 a7.5 7.5 0 1 0 15 0 a7.5 7.5 0 1 0 -15 0zM10.03 1232.55 a7.5 7.5 0 1 0 15 0 a7.5 7.5 0 1 0 -15 0zM-54.92 1195.05 a7.5 7.5 0 1 0 15 0 a7.5 7.5 0 1 0 -15 0zM-54.92 1120.05 a7.5 7.5 0 1 0 15 0 a7.5 7.5 0 1 0 -15 0zM139.94 -42.45 a7.5 7.5 0 1 0 15 0 a7.5 7.5 0 1 0 -15 0zM204.89 -4.95 a7.5 7.5 0 1 0 15 0 a7.5 7.5 0 1 0 -15 0zM204.89 70.05 a7.5 7.5 0 1 0 15 0 a7.5 7.5 0 1 0 -15 0zM74.98 -4.95 a7.5 7.5 0 1 0 15 0 a7.5 7.5 0 1 0 -15 0zM269.85 107.55 a7.5 7.5 0 1 0 15 0 a7.5 7.5 0 1 0 -15 0zM269.85 182.55 a7.5 7.5 0 1 0 15 0 a7.5 7.5 0 1 0 -15 0zM204.89 220.05 a7.5 7.5 0 1 0 15 0 a7.5 7.5 0 1 0 -15 0zM204.89 295.05 a7.5 7.5 0 1 0 15 0 a7.5 7.5 0 1 0 -15 0zM139.94 332.55 a7.5 7.5 0 1 0 15 0 a7.5 7.5 0 1 0 -15 0zM74.98 295.05 a7.5 7.5 0 1 0 15 0 a7.5 7.5 0 1 0 -15 0zM204.89 520.05 a7.5 7.5 0 1 0 15 0 a7.5 7.5 0 1 0 -15 0zM269.85 557.55 a7.5 7.5 0 1 0 15 0 a7.5 7.5 0 1 0 -15 0zM269.85 632.55 a7.5 7.5 0 1 0 15 0 a7.5 7.5 0 1 0 -15 0zM204.89 670.05 a7.5 7.5 0 1 0 15 0 a7.5 7.5 0 1 0 -15 0zM204.89 745.05 a7.5 7.5 0 1 0 15 0 a7.5 7.5 0 1 0 -15 0zM269.85 782.55 a7.5 7.5 0 1 0 15 0 a7.5 7.5 0 1 0 -15 0zM269.85 857.55 a7.5 7.5 0 1 0 15 0 a7.5 7.5 0 1 0 -15 0zM204.89 895.05 a7.5 7.5 0 1 0 15 0 a7.5 7.5 0 1 0 -15 0zM204.89 970.05 a7.5 7.5 0 1 0 15 0 a7.5 7.5 0 1 0 -15 0zM269.85 1007.55 a7.5 7.5 0 1 0 15 0 a7.5 7.5 0 1 0 -15 0zM269.85 1082.55 a7.5 7.5 0 1 0 15 0 a7.5 7.5 0 1 0 -15 0zM204.89 1120.05 a7.5 7.5 0 1 0 15 0 a7.5 7.5 0 1 0 -15 0zM204.89 1195.05 a7.5 7.5 0 1 0 15 0 a7.5 7.5 0 1 0 -15 0zM139.94 1232.55 a7.5 7.5 0 1 0 15 0 a7.5 7.5 0 1 0 -15 0zM334.8 70.05 a7.5 7.5 0 1 0 15 0 a7.5 7.5 0 1 0 -15 0zM399.75 107.55 a7.5 7.5 0 1 0 15 0 a7.5 7.5 0 1 0 -15 0zM399.75 182.55 a7.5 7.5 0 1 0 15 0 a7.5 7.5 0 1 0 -15 0zM334.8 220.05 a7.5 7.5 0 1 0 15 0 a7.5 7.5 0 1 0 -15 0zM334.8 295.05 a7.5 7.5 0 1 0 15 0 a7.5 7.5 0 1 0 -15 0zM269.85 332.55 a7.5 7.5 0 1 0 15 0 a7.5 7.5 0 1 0 -15 0zM399.75 332.55 a7.5 7.5 0 1 0 15 0 a7.5 7.5 0 1 0 -15 0zM399.75 407.55 a7.5 7.5 0 1 0 15 0 a7.5 7.5 0 1 0 -15 0zM334.8 445.05 a7.5 7.5 0 1 0 15 0 a7.5 7.5 0 1 0 -15 0zM269.85 407.55 a7.5 7.5 0 1 0 15 0 a7.5 7.5 0 1 0 -15 0zM334.8 520.05 a7.5 7.5 0 1 0 15 0 a7.5 7.5 0 1 0 -15 0zM399.75 557.55 a7.5 7.5 0 1 0 15 0 a7.5 7.5 0 1 0 -15 0zM399.75 632.55 a7.5 7.5 0 1 0 15 0 a7.5 7.5 0 1 0 -15 0zM334.8 670.05 a7.5 7.5 0 1 0 15 0 a7.5 7.5 0 1 0 -15 0zM334.8 745.05 a7.5 7.5 0 1 0 15 0 a7.5 7.5 0 1 0 -15 0zM399.75 782.55 a7.5 7.5 0 1 0 15 0 a7.5 7.5 0 1 0 -15 0zM399.75 857.55 a7.5 7.5 0 1 0 15 0 a7.5 7.5 0 1 0 -15 0zM334.8 895.05 a7.5 7.5 0 1 0 15 0 a7.5 7.5 0 1 0 -15 0zM334.8 1120.05 a7.5 7.5 0 1 0 15 0 a7.5 7.5 0 1 0 -15 0zM334.8 1195.05 a7.5 7.5 0 1 0 15 0 a7.5 7.5 0 1 0 -15 0zM269.85 1232.55 a7.5 7.5 0 1 0 15 0 a7.5 7.5 0 1 0 -15 0zM464.71 70.05 a7.5 7.5 0 1 0 15 0 a7.5 7.5 0 1 0 -15 0zM529.66 107.55 a7.5 7.5 0 1 0 15 0 a7.5 7.5 0 1 0 -15 0zM529.66 182.55 a7.5 7.5 0 1 0 15 0 a7.5 7.5 0 1 0 -15 0zM464.71 220.05 a7.5 7.5 0 1 0 15 0 a7.5 7.5 0 1 0 -15 0zM464.71 295.05 a7.5 7.5 0 1 0 15 0 a7.5 7.5 0 1 0 -15 0zM529.66 332.55 a7.5 7.5 0 1 0 15 0 a7.5 7.5 0 1 0 -15 0zM529.66 407.55 a7.5 7.5 0 1 0 15 0 a7.5 7.5 0 1 0 -15 0zM464.71 445.05 a7.5 7.5 0 1 0 15 0 a7.5 7.5 0 1 0 -15 0zM464.71 745.05 a7.5 7.5 0 1 0 15 0 a7.5 7.5 0 1 0 -15 0zM529.66 782.55 a7.5 7.5 0 1 0 15 0 a7.5 7.5 0 1 0 -15 0zM529.66 857.55 a7.5 7.5 0 1 0 15 0 a7.5 7.5 0 1 0 -15 0zM464.71 895.05 a7.5 7.5 0 1 0 15 0 a7.5 7.5 0 1 0 -15 0zM594.61 220.05 a7.5 7.5 0 1 0 15 0 a7.5 7.5 0 1 0 -15 0zM594.61 295.05 a7.5 7.5 0 1 0 15 0 a7.5 7.5 0 1 0 -15 0zM659.57 332.55 a7.5 7.5 0 1 0 15 0 a7.5 7.5 0 1 0 -15 0zM659.57 407.55 a7.5 7.5 0 1 0 15 0 a7.5 7.5 0 1 0 -15 0zM594.61 445.05 a7.5 7.5 0 1 0 15 0 a7.5 7.5 0 1 0 -15 0zM594.61 520.05 a7.5 7.5 0 1 0 15 0 a7.5 7.5 0 1 0 -15 0zM529.66 557.55 a7.5 7.5 0 1 0 15 0 a7.5 7.5 0 1 0 -15 0zM464.71 520.05 a7.5 7.5 0 1 0 15 0 a7.5 7.5 0 1 0 -15 0zM529.66 632.55 a7.5 7.5 0 1 0 15 0 a7.5 7.5 0 1 0 -15 0zM594.61 670.05 a7.5 7.5 0 1 0 15 0 a7.5 7.5 0 1 0 -15 0zM594.61 745.05 a7.5 7.5 0 1 0 15 0 a7.5 7.5 0 1 0 -15 0zM464.71 670.05 a7.5 7.5 0 1 0 15 0 a7.5 7.5 0 1 0 -15 0zM594.61 895.05 a7.5 7.5 0 1 0 15 0 a7.5 7.5 0 1 0 -15 0zM594.61 970.05 a7.5 7.5 0 1 0 15 0 a7.5 7.5 0 1 0 -15 0zM529.66 1007.55 a7.5 7.5 0 1 0 15 0 a7.5 7.5 0 1 0 -15 0zM464.71 970.05 a7.5 7.5 0 1 0 15 0 a7.5 7.5 0 1 0 -15 0zM529.66 1082.55 a7.5 7.5 0 1 0 15 0 a7.5 7.5 0 1 0 -15 0zM594.61 1120.05 a7.5 7.5 0 1 0 15 0 a7.5 7.5 0 1 0 -15 0zM594.61 1195.05 a7.5 7.5 0 1 0 15 0 a7.5 7.5 0 1 0 -15 0zM529.66 1232.55 a7.5 7.5 0 1 0 15 0 a7.5 7.5 0 1 0 -15 0zM464.71 1195.05 a7.5 7.5 0 1 0 15 0 a7.5 7.5 0 1 0 -15 0zM464.71 1120.05 a7.5 7.5 0 1 0 15 0 a7.5 7.5 0 1 0 -15 0zM724.52 70.05 a7.5 7.5 0 1 0 15 0 a7.5 7.5 0 1 0 -15 0zM789.48 107.55 a7.5 7.5 0 1 0 15 0 a7.5 7.5 0 1 0 -15 0zM789.48 182.55 a7.5 7.5 0 1 0 15 0 a7.5 7.5 0 1 0 -15 0zM724.52 220.05 a7.5 7.5 0 1 0 15 0 a7.5 7.5 0 1 0 -15 0zM659.57 182.55 a7.5 7.5 0 1 0 15 0 a7.5 7.5 0 1 0 -15 0zM659.57 107.55 a7.5 7.5 0 1 0 15 0 a7.5 7.5 0 1 0 -15 0zM724.52 295.05 a7.5 7.5 0 1 0 15 0 a7.5 7.5 0 1 0 -15 0zM789.48 332.55 a7.5 7.5 0 1 0 15 0 a7.5 7.5 0 1 0 -15 0zM789.48 407.55 a7.5 7.5 0 1 0 15 0 a7.5 7.5 0 1 0 -15 0zM724.52 445.05 a7.5 7.5 0 1 0 15 0 a7.5 7.5 0 1 0 -15 0zM724.52 520.05 a7.5 7.5 0 1 0 15 0 a7.5 7.5 0 1 0 -15 0zM789.48 557.55 a7.5 7.5 0 1 0 15 0 a7.5 7.5 0 1 0 -15 0zM789.48 632.55 a7.5 7.5 0 1 0 15 0 a7.5 7.5 0 1 0 -15 0zM724.52 670.05 a7.5 7.5 0 1 0 15 0 a7.5 7.5 0 1 0 -15 0zM659.57 632.55 a7.5 7.5 0 1 0 15 0 a7.5 7.5 0 1 0 -15 0zM659.57 557.55 a7.5 7.5 0 1 0 15 0 a7.5 7.5 0 1 0 -15 0zM724.52 745.05 a7.5 7.5 0 1 0 15 0 a7.5 7.5 0 1 0 -15 0zM659.57 782.55 a7.5 7.5 0 1 0 15 0 a7.5 7.5 0 1 0 -15 0zM789.47 407.55 a7.5 7.5 0 1 0 15 0 a7.5 7.5 0 1 0 -15 0zM854.43 445.05 a7.5 7.5 0 1 0 15 0 a7.5 7.5 0 1 0 -15 0zM854.43 520.05 a7.5 7.5 0 1 0 15 0 a7.5 7.5 0 1 0 -15 0zM789.47 557.55 a7.5 7.5 0 1 0 15 0 a7.5 7.5 0 1 0 -15 0zM919.38 557.55 a7.5 7.5 0 1 0 15 0 a7.5 7.5 0 1 0 -15 0zM919.38 632.55 a7.5 7.5 0 1 0 15 0 a7.5 7.5 0 1 0 -15 0zM854.43 670.05 a7.5 7.5 0 1 0 15 0 a7.5 7.5 0 1 0 -15 0zM789.47 632.55 a7.5 7.5 0 1 0 15 0 a7.5 7.5 0 1 0 -15 0zM854.43 745.05 a7.5 7.5 0 1 0 15 0 a7.5 7.5 0 1 0 -15 0zM789.47 782.55 a7.5 7.5 0 1 0 15 0 a7.5 7.5 0 1 0 -15 0zM919.38 782.55 a7.5 7.5 0 1 0 15 0 a7.5 7.5 0 1 0 -15 0zM919.38 857.55 a7.5 7.5 0 1 0 15 0 a7.5 7.5 0 1 0 -15 0zM854.43 895.05 a7.5 7.5 0 1 0 15 0 a7.5 7.5 0 1 0 -15 0zM789.47 857.55 a7.5 7.5 0 1 0 15 0 a7.5 7.5 0 1 0 -15 0zM854.43 970.05 a7.5 7.5 0 1 0 15 0 a7.5 7.5 0 1 0 -15 0zM789.47 1007.55 a7.5 7.5 0 1 0 15 0 a7.5 7.5 0 1 0 -15 0zM724.52 970.05 a7.5 7.5 0 1 0 15 0 a7.5 7.5 0 1 0 -15 0zM724.52 895.05 a7.5 7.5 0 1 0 15 0 a7.5 7.5 0 1 0 -15 0zM789.47 1082.55 a7.5 7.5 0 1 0 15 0 a7.5 7.5 0 1 0 -15 0zM854.43 1120.05 a7.5 7.5 0 1 0 15 0 a7.5 7.5 0 1 0 -15 0zM854.43 1195.05 a7.5 7.5 0 1 0 15 0 a7.5 7.5 0 1 0 -15 0zM789.47 1232.55 a7.5 7.5 0 1 0 15 0 a7.5 7.5 0 1 0 -15 0zM724.52 1195.05 a7.5 7.5 0 1 0 15 0 a7.5 7.5 0 1 0 -15 0zM724.52 1120.05 a7.5 7.5 0 1 0 15 0 a7.5 7.5 0 1 0 -15 0zM984.34 295.05 a7.5 7.5 0 1 0 15 0 a7.5 7.5 0 1 0 -15 0zM1049.29 332.55 a7.5 7.5 0 1 0 15 0 a7.5 7.5 0 1 0 -15 0zM1049.29 407.55 a7.5 7.5 0 1 0 15 0 a7.5 7.5 0 1 0 -15 0zM984.34 445.05 a7.5 7.5 0 1 0 15 0 a7.5 7.5 0 1 0 -15 0zM919.38 407.55 a7.5 7.5 0 1 0 15 0 a7.5 7.5 0 1 0 -15 0zM919.38 332.55 a7.5 7.5 0 1 0 15 0 a7.5 7.5 0 1 0 -15 0zM984.34 670.05 a7.5 7.5 0 1 0 15 0 a7.5 7.5 0 1 0 -15 0zM984.34 745.05 a7.5 7.5 0 1 0 15 0 a7.5 7.5 0 1 0 -15 0zM984.34 970.05 a7.5 7.5 0 1 0 15 0 a7.5 7.5 0 1 0 -15 0zM1049.29 1007.55 a7.5 7.5 0 1 0 15 0 a7.5 7.5 0 1 0 -15 0zM1049.29 1082.55 a7.5 7.5 0 1 0 15 0 a7.5 7.5 0 1 0 -15 0zM984.34 1120.05 a7.5 7.5 0 1 0 15 0 a7.5 7.5 0 1 0 -15 0zM919.38 1082.55 a7.5 7.5 0 1 0 15 0 a7.5 7.5 0 1 0 -15 0zM919.38 1007.55 a7.5 7.5 0 1 0 15 0 a7.5 7.5 0 1 0 -15 0zM984.34 1195.05 a7.5 7.5 0 1 0 15 0 a7.5 7.5 0 1 0 -15 0zM919.38 1232.55 a7.5 7.5 0 1 0 15 0 a7.5 7.5 0 1 0 -15 0zM1049.29 182.55 a7.5 7.5 0 1 0 15 0 a7.5 7.5 0 1 0 -15 0zM1114.24 220.05 a7.5 7.5 0 1 0 15 0 a7.5 7.5 0 1 0 -15 0zM1114.24 295.05 a7.5 7.5 0 1 0 15 0 a7.5 7.5 0 1 0 -15 0zM984.34 220.05 a7.5 7.5 0 1 0 15 0 a7.5 7.5 0 1 0 -15 0zM1114.24 520.05 a7.5 7.5 0 1 0 15 0 a7.5 7.5 0 1 0 -15 0zM1179.2 557.55 a7.5 7.5 0 1 0 15 0 a7.5 7.5 0 1 0 -15 0zM1179.2 632.55 a7.5 7.5 0 1 0 15 0 a7.5 7.5 0 1 0 -15 0zM1114.24 670.05 a7.5 7.5 0 1 0 15 0 a7.5 7.5 0 1 0 -15 0zM1049.29 632.55 a7.5 7.5 0 1 0 15 0 a7.5 7.5 0 1 0 -15 0zM1049.29 557.55 a7.5 7.5 0 1 0 15 0 a7.5 7.5 0 1 0 -15 0zM1049.29 857.55 a7.5 7.5 0 1 0 15 0 a7.5 7.5 0 1 0 -15 0zM1114.24 895.05 a7.5 7.5 0 1 0 15 0 a7.5 7.5 0 1 0 -15 0zM1114.24 970.05 a7.5 7.5 0 1 0 15 0 a7.5 7.5 0 1 0 -15 0zM984.34 895.05 a7.5 7.5 0 1 0 15 0 a7.5 7.5 0 1 0 -15 0zM1179.2 1007.55 a7.5 7.5 0 1 0 15 0 a7.5 7.5 0 1 0 -15 0zM1179.2 1082.55 a7.5 7.5 0 1 0 15 0 a7.5 7.5 0 1 0 -15 0zM1114.24 1120.05 a7.5 7.5 0 1 0 15 0 a7.5 7.5 0 1 0 -15 0zM1114.24 1195.05 a7.5 7.5 0 1 0 15 0 a7.5 7.5 0 1 0 -15 0zM1049.29 1232.55 a7.5 7.5 0 1 0 15 0 a7.5 7.5 0 1 0 -15 0zM1244.15 70.05 a7.5 7.5 0 1 0 15 0 a7.5 7.5 0 1 0 -15 0zM1309.1 107.55 a7.5 7.5 0 1 0 15 0 a7.5 7.5 0 1 0 -15 0zM1309.1 182.55 a7.5 7.5 0 1 0 15 0 a7.5 7.5 0 1 0 -15 0zM1244.15 220.05 a7.5 7.5 0 1 0 15 0 a7.5 7.5 0 1 0 -15 0zM1179.2 182.55 a7.5 7.5 0 1 0 15 0 a7.5 7.5 0 1 0 -15 0zM1179.2 107.55 a7.5 7.5 0 1 0 15 0 a7.5 7.5 0 1 0 -15 0zM1244.15 295.05 a7.5 7.5 0 1 0 15 0 a7.5 7.5 0 1 0 -15 0zM1179.2 332.55 a7.5 7.5 0 1 0 15 0 a7.5 7.5 0 1 0 -15 0zM1179.2 407.55 a7.5 7.5 0 1 0 15 0 a7.5 7.5 0 1 0 -15 0zM1244.15 445.05 a7.5 7.5 0 1 0 15 0 a7.5 7.5 0 1 0 -15 0zM1244.15 520.05 a7.5 7.5 0 1 0 15 0 a7.5 7.5 0 1 0 -15 0zM1114.24 445.05 a7.5 7.5 0 1 0 15 0 a7.5 7.5 0 1 0 -15 0zM1244.15 745.05 a7.5 7.5 0 1 0 15 0 a7.5 7.5 0 1 0 -15 0zM1309.1 782.55 a7.5 7.5 0 1 0 15 0 a7.5 7.5 0 1 0 -15 0zM1309.1 857.55 a7.5 7.5 0 1 0 15 0 a7.5 7.5 0 1 0 -15 0zM1244.15 895.05 a7.5 7.5 0 1 0 15 0 a7.5 7.5 0 1 0 -15 0zM1179.2 857.55 a7.5 7.5 0 1 0 15 0 a7.5 7.5 0 1 0 -15 0zM1179.2 782.55 a7.5 7.5 0 1 0 15 0 a7.5 7.5 0 1 0 -15 0zM1244.15 970.05 a7.5 7.5 0 1 0 15 0 a7.5 7.5 0 1 0 -15 0zM1309.11 182.55 a7.5 7.5 0 1 0 15 0 a7.5 7.5 0 1 0 -15 0zM1374.06 220.05 a7.5 7.5 0 1 0 15 0 a7.5 7.5 0 1 0 -15 0zM1374.06 295.05 a7.5 7.5 0 1 0 15 0 a7.5 7.5 0 1 0 -15 0zM1309.11 332.55 a7.5 7.5 0 1 0 15 0 a7.5 7.5 0 1 0 -15 0zM1439.01 332.55 a7.5 7.5 0 1 0 15 0 a7.5 7.5 0 1 0 -15 0zM1439.01 407.55 a7.5 7.5 0 1 0 15 0 a7.5 7.5 0 1 0 -15 0zM1374.06 445.05 a7.5 7.5 0 1 0 15 0 a7.5 7.5 0 1 0 -15 0zM1309.11 407.55 a7.5 7.5 0 1 0 15 0 a7.5 7.5 0 1 0 -15 0zM1374.06 520.05 a7.5 7.5 0 1 0 15 0 a7.5 7.5 0 1 0 -15 0zM1309.11 557.55 a7.5 7.5 0 1 0 15 0 a7.5 7.5 0 1 0 -15 0zM1439.01 557.55 a7.5 7.5 0 1 0 15 0 a7.5 7.5 0 1 0 -15 0zM1439.01 632.55 a7.5 7.5 0 1 0 15 0 a7.5 7.5 0 1 0 -15 0zM1374.06 670.05 a7.5 7.5 0 1 0 15 0 a7.5 7.5 0 1 0 -15 0zM1309.11 632.55 a7.5 7.5 0 1 0 15 0 a7.5 7.5 0 1 0 -15 0zM1374.06 745.05 a7.5 7.5 0 1 0 15 0 a7.5 7.5 0 1 0 -15 0zM1309.11 782.55 a7.5 7.5 0 1 0 15 0 a7.5 7.5 0 1 0 -15 0zM1244.15 670.05 a7.5 7.5 0 1 0 15 0 a7.5 7.5 0 1 0 -15 0zM1439.01 782.55 a7.5 7.5 0 1 0 15 0 a7.5 7.5 0 1 0 -15 0zM1439.01 857.55 a7.5 7.5 0 1 0 15 0 a7.5 7.5 0 1 0 -15 0zM1374.06 895.05 a7.5 7.5 0 1 0 15 0 a7.5 7.5 0 1 0 -15 0zM1309.11 857.55 a7.5 7.5 0 1 0 15 0 a7.5 7.5 0 1 0 -15 0zM1374.06 970.05 a7.5 7.5 0 1 0 15 0 a7.5 7.5 0 1 0 -15 0zM1439.01 1007.55 a7.5 7.5 0 1 0 15 0 a7.5 7.5 0 1 0 -15 0zM1439.01 1082.55 a7.5 7.5 0 1 0 15 0 a7.5 7.5 0 1 0 -15 0zM1374.06 1120.05 a7.5 7.5 0 1 0 15 0 a7.5 7.5 0 1 0 -15 0zM1309.11 1082.55 a7.5 7.5 0 1 0 15 0 a7.5 7.5 0 1 0 -15 0zM1309.11 1007.55 a7.5 7.5 0 1 0 15 0 a7.5 7.5 0 1 0 -15 0zM1374.06 1195.05 a7.5 7.5 0 1 0 15 0 a7.5 7.5 0 1 0 -15 0zM1309.11 1232.55 a7.5 7.5 0 1 0 15 0 a7.5 7.5 0 1 0 -15 0zM1244.15 1195.05 a7.5 7.5 0 1 0 15 0 a7.5 7.5 0 1 0 -15 0zM1244.15 1120.05 a7.5 7.5 0 1 0 15 0 a7.5 7.5 0 1 0 -15 0zM1439.01 -42.45 a7.5 7.5 0 1 0 15 0 a7.5 7.5 0 1 0 -15 0zM1503.97 -4.95 a7.5 7.5 0 1 0 15 0 a7.5 7.5 0 1 0 -15 0zM1503.97 70.05 a7.5 7.5 0 1 0 15 0 a7.5 7.5 0 1 0 -15 0zM1439.01 107.55 a7.5 7.5 0 1 0 15 0 a7.5 7.5 0 1 0 -15 0zM1374.06 70.05 a7.5 7.5 0 1 0 15 0 a7.5 7.5 0 1 0 -15 0zM1374.06 -4.95 a7.5 7.5 0 1 0 15 0 a7.5 7.5 0 1 0 -15 0zM1568.92 107.55 a7.5 7.5 0 1 0 15 0 a7.5 7.5 0 1 0 -15 0zM1568.92 182.55 a7.5 7.5 0 1 0 15 0 a7.5 7.5 0 1 0 -15 0zM1503.97 220.05 a7.5 7.5 0 1 0 15 0 a7.5 7.5 0 1 0 -15 0zM1439.01 182.55 a7.5 7.5 0 1 0 15 0 a7.5 7.5 0 1 0 -15 0zM1503.97 670.05 a7.5 7.5 0 1 0 15 0 a7.5 7.5 0 1 0 -15 0zM1503.97 745.05 a7.5 7.5 0 1 0 15 0 a7.5 7.5 0 1 0 -15 0zM1568.92 782.55 a7.5 7.5 0 1 0 15 0 a7.5 7.5 0 1 0 -15 0zM1568.92 857.55 a7.5 7.5 0 1 0 15 0 a7.5 7.5 0 1 0 -15 0zM1503.97 895.05 a7.5 7.5 0 1 0 15 0 a7.5 7.5 0 1 0 -15 0zM1503.97 970.05 a7.5 7.5 0 1 0 15 0 a7.5 7.5 0 1 0 -15 0z" fill="#03305d"></path><path d="M43.94 58.08L87.25 83.08L87.25 133.08L43.94 158.08L0.64 133.08L0.64 83.08zM0.64 133.08L43.94 158.08L43.94 208.08L0.64 233.08L-42.66 208.08L-42.66 158.08zM0.64 283.08L43.94 308.08L43.94 358.08L0.64 383.08L-42.66 358.08L-42.66 308.08zM43.94 358.08L87.25 383.08L87.25 433.08L43.94 458.08L0.64 433.08L0.64 383.08zM43.94 508.08L87.25 533.08L87.25 583.08L43.94 608.08L0.64 583.08L0.64 533.08zM0.64 583.08L43.94 608.08L43.94 658.08L0.64 683.08L-42.66 658.08L-42.66 608.08zM43.94 808.08L87.25 833.08L87.25 883.08L43.94 908.08L0.64 883.08L0.64 833.08zM0.64 883.08L43.94 908.08L43.94 958.08L0.64 983.08L-42.66 958.08L-42.66 908.08zM43.94 1108.08L87.25 1133.08L87.25 1183.08L43.94 1208.08L0.64 1183.08L0.64 1133.08zM87.25 -16.92L130.55 8.08L130.55 58.08L87.25 83.08L43.94 58.08L43.94 8.08zM130.55 58.08L173.85 83.08L173.85 133.08L130.55 158.08L87.25 133.08L87.25 83.08zM87.25 433.08L130.55 458.08L130.55 508.08L87.25 533.08L43.94 508.08L43.94 458.08zM87.25 583.08L130.55 608.08L130.55 658.08L87.25 683.08L43.94 658.08L43.94 608.08zM87.25 883.08L130.55 908.08L130.55 958.08L87.25 983.08L43.94 958.08L43.94 908.08zM130.55 958.08L173.85 983.08L173.85 1033.08L130.55 1058.08L87.25 1033.08L87.25 983.08zM87.25 1033.08L130.55 1058.08L130.55 1108.08L87.25 1133.08L43.94 1108.08L43.94 1058.08zM130.55 1108.08L173.85 1133.08L173.85 1183.08L130.55 1208.08L87.25 1183.08L87.25 1133.08zM217.15 58.08L260.45 83.08L260.45 133.08L217.15 158.08L173.85 133.08L173.85 83.08zM217.15 358.08L260.45 383.08L260.45 433.08L217.15 458.08L173.85 433.08L173.85 383.08zM173.85 733.08L217.15 758.08L217.15 808.08L173.85 833.08L130.55 808.08L130.55 758.08zM173.85 883.08L217.15 908.08L217.15 958.08L173.85 983.08L130.55 958.08L130.55 908.08zM260.45 -16.92L303.76 8.08L303.76 58.08L260.45 83.08L217.15 58.08L217.15 8.08zM303.76 358.08L347.06 383.08L347.06 433.08L303.76 458.08L260.45 433.08L260.45 383.08zM260.45 883.08L303.76 908.08L303.76 958.08L260.45 983.08L217.15 958.08L217.15 908.08zM303.76 1108.08L347.06 1133.08L347.06 1183.08L303.76 1208.08L260.45 1183.08L260.45 1133.08zM390.36 208.08L433.67 233.08L433.67 283.08L390.36 308.08L347.06 283.08L347.06 233.08zM347.06 283.08L390.36 308.08L390.36 358.08L347.06 383.08L303.76 358.08L303.76 308.08zM390.36 358.08L433.67 383.08L433.67 433.08L390.36 458.08L347.06 433.08L347.06 383.08zM347.06 433.08L390.36 458.08L390.36 508.08L347.06 533.08L303.76 508.08L303.76 458.08zM390.36 508.08L433.67 533.08L433.67 583.08L390.36 608.08L347.06 583.08L347.06 533.08zM347.06 583.08L390.36 608.08L390.36 658.08L347.06 683.08L303.76 658.08L303.76 608.08zM347.06 883.08L390.36 908.08L390.36 958.08L347.06 983.08L303.76 958.08L303.76 908.08zM476.97 208.08L520.27 233.08L520.27 283.08L476.97 308.08L433.67 283.08L433.67 233.08zM476.97 358.08L520.27 383.08L520.27 433.08L476.97 458.08L433.67 433.08L433.67 383.08zM476.97 808.08L520.27 833.08L520.27 883.08L476.97 908.08L433.67 883.08L433.67 833.08zM433.67 883.08L476.97 908.08L476.97 958.08L433.67 983.08L390.36 958.08L390.36 908.08zM476.97 1108.08L520.27 1133.08L520.27 1183.08L476.97 1208.08L433.67 1183.08L433.67 1133.08zM520.27 133.08L563.57 158.08L563.57 208.08L520.27 233.08L476.97 208.08L476.97 158.08zM520.27 283.08L563.57 308.08L563.57 358.08L520.27 383.08L476.97 358.08L476.97 308.08zM563.57 358.08L606.88 383.08L606.88 433.08L563.57 458.08L520.27 433.08L520.27 383.08zM563.57 508.08L606.88 533.08L606.88 583.08L563.57 608.08L520.27 583.08L520.27 533.08zM520.27 583.08L563.57 608.08L563.57 658.08L520.27 683.08L476.97 658.08L476.97 608.08zM563.57 658.08L606.88 683.08L606.88 733.08L563.57 758.08L520.27 733.08L520.27 683.08zM563.57 808.08L606.88 833.08L606.88 883.08L563.57 908.08L520.27 883.08L520.27 833.08zM563.57 958.08L606.88 983.08L606.88 1033.08L563.57 1058.08L520.27 1033.08L520.27 983.08zM606.88 133.08L650.18 158.08L650.18 208.08L606.88 233.08L563.57 208.08L563.57 158.08zM650.18 208.08L693.48 233.08L693.48 283.08L650.18 308.08L606.88 283.08L606.88 233.08zM650.18 658.08L693.48 683.08L693.48 733.08L650.18 758.08L606.88 733.08L606.88 683.08zM606.88 733.08L650.18 758.08L650.18 808.08L606.88 833.08L563.57 808.08L563.57 758.08zM650.18 808.08L693.48 833.08L693.48 883.08L650.18 908.08L606.88 883.08L606.88 833.08zM693.48 -16.92L736.78 8.08L736.78 58.08L693.48 83.08L650.18 58.08L650.18 8.08zM736.78 58.08L780.09 83.08L780.09 133.08L736.78 158.08L693.48 133.08L693.48 83.08zM693.48 133.08L736.78 158.08L736.78 208.08L693.48 233.08L650.18 208.08L650.18 158.08zM693.48 433.08L736.78 458.08L736.78 508.08L693.48 533.08L650.18 508.08L650.18 458.08zM736.78 508.08L780.09 533.08L780.09 583.08L736.78 608.08L693.48 583.08L693.48 533.08zM736.78 658.08L780.09 683.08L780.09 733.08L736.78 758.08L693.48 733.08L693.48 683.08zM693.48 733.08L736.78 758.08L736.78 808.08L693.48 833.08L650.18 808.08L650.18 758.08zM736.78 958.08L780.09 983.08L780.09 1033.08L736.78 1058.08L693.48 1033.08L693.48 983.08zM693.48 1033.08L736.78 1058.08L736.78 1108.08L693.48 1133.08L650.18 1108.08L650.18 1058.08zM823.39 58.08L866.69 83.08L866.69 133.08L823.39 158.08L780.09 133.08L780.09 83.08zM780.09 133.08L823.39 158.08L823.39 208.08L780.09 233.08L736.78 208.08L736.78 158.08zM780.09 283.08L823.39 308.08L823.39 358.08L780.09 383.08L736.78 358.08L736.78 308.08zM823.39 358.08L866.69 383.08L866.69 433.08L823.39 458.08L780.09 433.08L780.09 383.08zM780.09 433.08L823.39 458.08L823.39 508.08L780.09 533.08L736.78 508.08L736.78 458.08zM823.39 1108.08L866.69 1133.08L866.69 1183.08L823.39 1208.08L780.09 1183.08L780.09 1133.08zM866.69 -16.92L909.99 8.08L909.99 58.08L866.69 83.08L823.39 58.08L823.39 8.08zM909.99 58.08L953.3 83.08L953.3 133.08L909.99 158.08L866.69 133.08L866.69 83.08zM866.69 133.08L909.99 158.08L909.99 208.08L866.69 233.08L823.39 208.08L823.39 158.08zM909.99 208.08L953.3 233.08L953.3 283.08L909.99 308.08L866.69 283.08L866.69 233.08zM866.69 283.08L909.99 308.08L909.99 358.08L866.69 383.08L823.39 358.08L823.39 308.08zM909.99 358.08L953.3 383.08L953.3 433.08L909.99 458.08L866.69 433.08L866.69 383.08zM909.99 508.08L953.3 533.08L953.3 583.08L909.99 608.08L866.69 583.08L866.69 533.08zM909.99 658.08L953.3 683.08L953.3 733.08L909.99 758.08L866.69 733.08L866.69 683.08zM866.69 883.08L909.99 908.08L909.99 958.08L866.69 983.08L823.39 958.08L823.39 908.08zM866.69 1033.08L909.99 1058.08L909.99 1108.08L866.69 1133.08L823.39 1108.08L823.39 1058.08zM953.3 283.08L996.6 308.08L996.6 358.08L953.3 383.08L909.99 358.08L909.99 308.08zM996.6 358.08L1039.9 383.08L1039.9 433.08L996.6 458.08L953.3 433.08L953.3 383.08zM953.3 583.08L996.6 608.08L996.6 658.08L953.3 683.08L909.99 658.08L909.99 608.08zM996.6 658.08L1039.9 683.08L1039.9 733.08L996.6 758.08L953.3 733.08L953.3 683.08zM996.6 808.08L1039.9 833.08L1039.9 883.08L996.6 908.08L953.3 883.08L953.3 833.08zM953.3 883.08L996.6 908.08L996.6 958.08L953.3 983.08L909.99 958.08L909.99 908.08zM953.3 1033.08L996.6 1058.08L996.6 1108.08L953.3 1133.08L909.99 1108.08L909.99 1058.08zM1039.9 -16.92L1083.2 8.08L1083.2 58.08L1039.9 83.08L996.6 58.08L996.6 8.08zM1083.2 58.08L1126.51 83.08L1126.51 133.08L1083.2 158.08L1039.9 133.08L1039.9 83.08zM1083.2 208.08L1126.51 233.08L1126.51 283.08L1083.2 308.08L1039.9 283.08L1039.9 233.08zM1039.9 283.08L1083.2 308.08L1083.2 358.08L1039.9 383.08L996.6 358.08L996.6 308.08zM1083.2 358.08L1126.51 383.08L1126.51 433.08L1083.2 458.08L1039.9 433.08L1039.9 383.08zM1083.2 658.08L1126.51 683.08L1126.51 733.08L1083.2 758.08L1039.9 733.08L1039.9 683.08zM1039.9 733.08L1083.2 758.08L1083.2 808.08L1039.9 833.08L996.6 808.08L996.6 758.08zM1039.9 883.08L1083.2 908.08L1083.2 958.08L1039.9 983.08L996.6 958.08L996.6 908.08zM1083.2 958.08L1126.51 983.08L1126.51 1033.08L1083.2 1058.08L1039.9 1033.08L1039.9 983.08zM1083.2 1108.08L1126.51 1133.08L1126.51 1183.08L1083.2 1208.08L1039.9 1183.08L1039.9 1133.08zM1169.81 58.08L1213.11 83.08L1213.11 133.08L1169.81 158.08L1126.51 133.08L1126.51 83.08zM1126.51 133.08L1169.81 158.08L1169.81 208.08L1126.51 233.08L1083.2 208.08L1083.2 158.08zM1169.81 208.08L1213.11 233.08L1213.11 283.08L1169.81 308.08L1126.51 283.08L1126.51 233.08zM1169.81 358.08L1213.11 383.08L1213.11 433.08L1169.81 458.08L1126.51 433.08L1126.51 383.08zM1169.81 508.08L1213.11 533.08L1213.11 583.08L1169.81 608.08L1126.51 583.08L1126.51 533.08zM1126.51 583.08L1169.81 608.08L1169.81 658.08L1126.51 683.08L1083.2 658.08L1083.2 608.08zM1169.81 658.08L1213.11 683.08L1213.11 733.08L1169.81 758.08L1126.51 733.08L1126.51 683.08zM1126.51 733.08L1169.81 758.08L1169.81 808.08L1126.51 833.08L1083.2 808.08L1083.2 758.08zM1169.81 808.08L1213.11 833.08L1213.11 883.08L1169.81 908.08L1126.51 883.08L1126.51 833.08zM1126.51 883.08L1169.81 908.08L1169.81 958.08L1126.51 983.08L1083.2 958.08L1083.2 908.08zM1169.81 1108.08L1213.11 1133.08L1213.11 1183.08L1169.81 1208.08L1126.51 1183.08L1126.51 1133.08zM1213.11 -16.92L1256.41 8.08L1256.41 58.08L1213.11 83.08L1169.81 58.08L1169.81 8.08zM1256.41 208.08L1299.72 233.08L1299.72 283.08L1256.41 308.08L1213.11 283.08L1213.11 233.08zM1213.11 283.08L1256.41 308.08L1256.41 358.08L1213.11 383.08L1169.81 358.08L1169.81 308.08zM1256.41 358.08L1299.72 383.08L1299.72 433.08L1256.41 458.08L1213.11 433.08L1213.11 383.08zM1256.41 508.08L1299.72 533.08L1299.72 583.08L1256.41 608.08L1213.11 583.08L1213.11 533.08zM1213.11 583.08L1256.41 608.08L1256.41 658.08L1213.11 683.08L1169.81 658.08L1169.81 608.08zM1213.11 733.08L1256.41 758.08L1256.41 808.08L1213.11 833.08L1169.81 808.08L1169.81 758.08zM1213.11 883.08L1256.41 908.08L1256.41 958.08L1213.11 983.08L1169.81 958.08L1169.81 908.08zM1213.11 1033.08L1256.41 1058.08L1256.41 1108.08L1213.11 1133.08L1169.81 1108.08L1169.81 1058.08zM1256.41 1108.08L1299.72 1133.08L1299.72 1183.08L1256.41 1208.08L1213.11 1183.08L1213.11 1133.08zM1299.72 -16.92L1343.02 8.08L1343.02 58.08L1299.72 83.08L1256.41 58.08L1256.41 8.08zM1299.72 133.08L1343.02 158.08L1343.02 208.08L1299.72 233.08L1256.41 208.08L1256.41 158.08zM1343.02 358.08L1386.32 383.08L1386.32 433.08L1343.02 458.08L1299.72 433.08L1299.72 383.08zM1343.02 508.08L1386.32 533.08L1386.32 583.08L1343.02 608.08L1299.72 583.08L1299.72 533.08zM1299.72 583.08L1343.02 608.08L1343.02 658.08L1299.72 683.08L1256.41 658.08L1256.41 608.08zM1299.72 883.08L1343.02 908.08L1343.02 958.08L1299.72 983.08L1256.41 958.08L1256.41 908.08zM1386.32 -16.92L1429.62 8.08L1429.62 58.08L1386.32 83.08L1343.02 58.08L1343.02 8.08zM1429.62 58.08L1472.93 83.08L1472.93 133.08L1429.62 158.08L1386.32 133.08L1386.32 83.08zM1386.32 283.08L1429.62 308.08L1429.62 358.08L1386.32 383.08L1343.02 358.08L1343.02 308.08zM1386.32 433.08L1429.62 458.08L1429.62 508.08L1386.32 533.08L1343.02 508.08L1343.02 458.08zM1386.32 733.08L1429.62 758.08L1429.62 808.08L1386.32 833.08L1343.02 808.08L1343.02 758.08zM1429.62 958.08L1472.93 983.08L1472.93 1033.08L1429.62 1058.08L1386.32 1033.08L1386.32 983.08z" stroke="rgba(7, 55, 74, 1)" stroke-width="2"></path></g><defs><mask id="SvgjsMask1005"><rect width="1440" height="1160" fill="#ffffff"></rect></mask></defs></svg>