<svg xmlns="http://www.w3.org/2000/svg" version="1.1" xmlns:xlink="http://www.w3.org/1999/xlink" xmlns:svgjs="http://svgjs.com/svgjs" width="2500" height="1440" preserveAspectRatio="none" viewBox="0 0 2500 1440"><g mask="url(&quot;#SvgjsMask1000&quot;)" fill="none"><rect width="2500" height="1440" x="0" y="0" fill="#0e2a47"></rect><path d="M0,858.803C219.953,883.838,435.05,1081.838,637.043,991.258C835.46,902.281,891.909,643.189,948.831,433.317C999.496,246.518,950.321,57.862,942.656,-135.534C933.948,-355.251,1019.437,-595.39,900.724,-780.482C779.411,-969.628,544.761,-1062.927,323.33,-1101.159C114.27,-1137.255,-86.846,-1048.72,-289.511,-985.985C-489.124,-924.195,-695.521,-876.948,-851.214,-737.581C-1019.389,-587.04,-1188.737,-397.817,-1198.493,-172.317C-1208.128,50.398,-1019.8,222.856,-900.925,411.438C-798.173,574.442,-722.78,770.43,-550.199,856.127C-382.539,939.381,-185.992,837.634,0,858.803" fill="#0b2239"></path><path d="M2500 2210.277C2646.745 2247.969 2808.482 2200.243 2935.616 2117.832 3062.524 2035.567 3152.276 1902.804 3197.143 1758.374 3239.1459999999997 1623.166 3229.551 1473.974 3176.3959999999997 1342.749 3129.147 1226.104 3000.723 1172.6 2920.564 1075.58 2837.682 975.265 2812.679 826.51 2698.423 764.235 2576.801 697.945 2428.845 708.953 2292.477 733.242 2144.4610000000002 759.606 1988.662 798.072 1886.933 908.775 1784.2069999999999 1020.562 1746.133 1179.376 1743.022 1331.163 1740.1190000000001 1472.79 1785.2930000000001 1614.214 1870.1480000000001 1727.644 1946.4479999999999 1829.6390000000001 2086.718 1848.282 2187.824 1925.7559999999999 2301.891 2013.161 2360.814 2174.526 2500 2210.277" fill="#113255"></path></g><defs><mask id="SvgjsMask1000"><rect width="2500" height="1440" fill="#ffffff"></rect></mask></defs></svg>