<svg id="visual" viewBox="0 0 800 1200" width="800" height="1200" xmlns="http://www.w3.org/2000/svg" xmlns:xlink="http://www.w3.org/1999/xlink" version="1.1"><path d="M623 1200L471 1200L471 1091L583 1091L583 982L575 982L575 873L591 873L591 764L535 764L535 655L559 655L559 545L551 545L551 436L591 436L591 327L447 327L447 218L639 218L639 109L583 109L583 0L800 0L800 109L800 109L800 218L800 218L800 327L800 327L800 436L800 436L800 545L800 545L800 655L800 655L800 764L800 764L800 873L800 873L800 982L800 982L800 1091L800 1091L800 1200L800 1200Z" fill="#888277"></path><path d="M575 1200L375 1200L375 1091L455 1091L455 982L495 982L495 873L503 873L503 764L407 764L407 655L455 655L455 545L423 545L423 436L519 436L519 327L399 327L399 218L527 218L527 109L495 109L495 0L584 0L584 109L640 109L640 218L448 218L448 327L592 327L592 436L552 436L552 545L560 545L560 655L536 655L536 764L592 764L592 873L576 873L576 982L584 982L584 1091L472 1091L472 1200L624 1200Z" fill="#676d5f"></path><path d="M471 1200L319 1200L319 1091L335 1091L335 982L391 982L391 873L359 873L359 764L311 764L311 655L359 655L359 545L271 545L271 436L463 436L463 327L311 327L311 218L415 218L415 109L391 109L391 0L496 0L496 109L528 109L528 218L400 218L400 327L520 327L520 436L424 436L424 545L456 545L456 655L408 655L408 764L504 764L504 873L496 873L496 982L456 982L456 1091L376 1091L376 1200L576 1200Z" fill="#43584f"></path><path d="M159 1200L199 1200L199 1091L135 1091L135 982L175 982L175 873L63 873L63 764L159 764L159 655L79 655L79 545L175 545L175 436L231 436L231 327L79 327L79 218L111 218L111 109L127 109L127 0L392 0L392 109L416 109L416 218L312 218L312 327L464 327L464 436L272 436L272 545L360 545L360 655L312 655L312 764L360 764L360 873L392 873L392 982L336 982L336 1091L320 1091L320 1200L472 1200Z" fill="#224244"></path><path d="M0 1200L0 1200L0 1091L0 1091L0 982L0 982L0 873L0 873L0 764L0 764L0 655L0 655L0 545L0 545L0 436L0 436L0 327L0 327L0 218L0 218L0 109L0 109L0 0L128 0L128 109L112 109L112 218L80 218L80 327L232 327L232 436L176 436L176 545L80 545L80 655L160 655L160 764L64 764L64 873L176 873L176 982L136 982L136 1091L200 1091L200 1200L160 1200Z" fill="#082c3a"></path></svg>