<svg xmlns="http://www.w3.org/2000/svg" version="1.1" xmlns:xlink="http://www.w3.org/1999/xlink" xmlns:svgjs="http://svgjs.com/svgjs" width="2600" height="300" preserveAspectRatio="none" viewBox="0 0 2600 300"><g mask="url(&quot;#SvgjsMask1067&quot;)" fill="none"><path d="M 0,43 C 520,69.6 2080,149.4 2600,176L2600 300L0 300z" fill="rgba(24, 74, 126, 0)"></path><path d="M 0,214 C 34.8,188.4 104.4,78.8 174,86 C 243.6,93.2 278.4,245.8 348,250 C 417.6,254.2 452.4,103.6 522,107 C 591.6,110.4 626.4,274.4 696,267 C 765.6,259.6 800.4,69 870,70 C 939.6,71 974.4,260.2 1044,272 C 1113.6,283.8 1148.4,145.6 1218,129 C 1287.6,112.4 1322.4,214.4 1392,189 C 1461.6,163.6 1496.4,9.4 1566,2 C 1635.6,-5.4 1670.4,152 1740,152 C 1809.6,152 1844.4,-10.6 1914,2 C 1983.6,14.6 2018.4,204.4 2088,215 C 2157.6,225.6 2192.4,65.2 2262,55 C 2331.6,44.8 2368.4,153.4 2436,164 C 2503.6,174.6 2567.2,119.2 2600,108L2600 300L0 300z" fill="rgba(37, 183, 159, 0.54)"></path></g><defs><mask id="SvgjsMask1067"><rect width="2600" height="300" fill="#ffffff"></rect></mask></defs></svg>