<svg xmlns="http://www.w3.org/2000/svg" version="1.1" xmlns:xlink="http://www.w3.org/1999/xlink" xmlns:svgjs="http://svgjs.com/svgjs" width="1440" height="560" preserveAspectRatio="none" viewBox="0 0 1440 560"><g mask="url(&quot;#SvgjsMask1001&quot;)" fill="none"><path d="M -127.01752123216585,99 C -31.02,137 160.98,271 352.98247876783415,289 C 544.98,307 640.98,148 832.9824787678342,189 C 1024.98,230 1120.98,490 1312.9824787678342,494 C 1504.98,498 1767.58,225.2 1792.9824787678342,209 C 1818.39,192.8 1510.6,372.2 1440,413" stroke="rgba(51, 121, 194, 0.58)" stroke-width="2"></path><path d="M -952.5326806924118,200 C -856.53,224 -664.53,328.6 -472.53268069241176,320 C -280.53,311.4 -184.53,135.4 7.467319307588241,157 C 199.47,178.6 295.47,435.6 487.46731930758824,428 C 679.47,420.4 776.96,143 967.4673193075882,119 C 1157.97,95 1345.49,270.2 1440,308" stroke="rgba(51, 121, 194, 0.58)" stroke-width="2"></path><path d="M -238.02723374364987,186 C -142.03,206.4 49.97,297.4 241.97276625635013,288 C 433.97,278.6 529.97,105.2 721.9727662563502,139 C 913.97,172.8 1009.97,458.4 1201.97276625635,457 C 1393.97,455.6 1634.37,143.8 1681.97276625635,132 C 1729.58,120.2 1488.39,344.8 1440,398" stroke="rgba(51, 121, 194, 0.58)" stroke-width="2"></path><path d="M -500.3036803250013,208 C -404.3,230.2 -212.3,327.6 -20.303680325001316,319 C 171.7,310.4 267.7,169.6 459.6963196749987,165 C 651.7,160.4 747.7,299 939.6963196749987,296 C 1131.7,293 1319.64,143.4 1419.6963196749987,150 C 1519.76,156.6 1435.94,293.2 1440,329" stroke="rgba(51, 121, 194, 0.58)" stroke-width="2"></path></g><defs><mask id="SvgjsMask1001"><rect width="1440" height="560" fill="#ffffff"></rect></mask></defs></svg>