<svg id="visual" viewBox="0 0 3000 1450" width="3000" height="1450" xmlns="http://www.w3.org/2000/svg" xmlns:xlink="http://www.w3.org/1999/xlink" version="1.1"><path d="M0 851L20.8 833.2C41.7 815.3 83.3 779.7 125 752.8C166.7 726 208.3 708 250 728.3C291.7 748.7 333.3 807.3 375 792.7C416.7 778 458.3 690 500 677.2C541.7 664.3 583.3 726.7 625 759.5C666.7 792.3 708.3 795.7 750 782.3C791.7 769 833.3 739 875 712.7C916.7 686.3 958.3 663.7 1000 668.5C1041.7 673.3 1083.3 705.7 1125 696.7C1166.7 687.7 1208.3 637.3 1250 626C1291.7 614.7 1333.3 642.3 1375 683.5C1416.7 724.7 1458.3 779.3 1500 792.8C1541.7 806.3 1583.3 778.7 1625 761.3C1666.7 744 1708.3 737 1750 731.7C1791.7 726.3 1833.3 722.7 1875 725C1916.7 727.3 1958.3 735.7 2000 721.5C2041.7 707.3 2083.3 670.7 2125 676.2C2166.7 681.7 2208.3 729.3 2250 741.8C2291.7 754.3 2333.3 731.7 2375 737.7C2416.7 743.7 2458.3 778.3 2500 796.5C2541.7 814.7 2583.3 816.3 2625 793.2C2666.7 770 2708.3 722 2750 715.5C2791.7 709 2833.3 744 2875 735.2C2916.7 726.3 2958.3 673.7 2979.2 647.3L3000 621L3000 0L2979.2 0C2958.3 0 2916.7 0 2875 0C2833.3 0 2791.7 0 2750 0C2708.3 0 2666.7 0 2625 0C2583.3 0 2541.7 0 2500 0C2458.3 0 2416.7 0 2375 0C2333.3 0 2291.7 0 2250 0C2208.3 0 2166.7 0 2125 0C2083.3 0 2041.7 0 2000 0C1958.3 0 1916.7 0 1875 0C1833.3 0 1791.7 0 1750 0C1708.3 0 1666.7 0 1625 0C1583.3 0 1541.7 0 1500 0C1458.3 0 1416.7 0 1375 0C1333.3 0 1291.7 0 1250 0C1208.3 0 1166.7 0 1125 0C1083.3 0 1041.7 0 1000 0C958.3 0 916.7 0 875 0C833.3 0 791.7 0 750 0C708.3 0 666.7 0 625 0C583.3 0 541.7 0 500 0C458.3 0 416.7 0 375 0C333.3 0 291.7 0 250 0C208.3 0 166.7 0 125 0C83.3 0 41.7 0 20.8 0L0 0Z" fill="#082c3a" stroke-linecap="round" stroke-linejoin="miter"></path></svg>