<svg id="visual" viewBox="0 0 768 1750" width="768" height="1750" xmlns="http://www.w3.org/2000/svg" xmlns:xlink="http://www.w3.org/1999/xlink" version="1.1"><path d="M0 1027L5.3 1005.5C10.7 984 21.3 941 32 908.7C42.7 876.3 53.3 854.7 64 879.2C74.7 903.7 85.3 974.3 96 956.7C106.7 939 117.3 833 128 817.7C138.7 802.3 149.3 877.7 160 917.2C170.7 956.7 181.3 960.3 192 944.2C202.7 928 213.3 892 224 860.3C234.7 828.7 245.3 801.3 256 807.2C266.7 813 277.3 852 288 841C298.7 830 309.3 769 320 755.3C330.7 741.7 341.3 775.3 352 825.2C362.7 875 373.3 941 384 957.3C394.7 973.7 405.3 940.3 416 919.3C426.7 898.3 437.3 889.7 448 883.2C458.7 876.7 469.3 872.3 480 875.2C490.7 878 501.3 888 512 870.8C522.7 853.7 533.3 809.3 544 815.8C554.7 822.3 565.3 879.7 576 894.7C586.7 909.7 597.3 882.3 608 889.7C618.7 897 629.3 939 640 961C650.7 983 661.3 985 672 957C682.7 929 693.3 871 704 863.3C714.7 855.7 725.3 898.3 736 887.8C746.7 877.3 757.3 813.7 762.7 781.8L768 750L768 0L762.7 0C757.3 0 746.7 0 736 0C725.3 0 714.7 0 704 0C693.3 0 682.7 0 672 0C661.3 0 650.7 0 640 0C629.3 0 618.7 0 608 0C597.3 0 586.7 0 576 0C565.3 0 554.7 0 544 0C533.3 0 522.7 0 512 0C501.3 0 490.7 0 480 0C469.3 0 458.7 0 448 0C437.3 0 426.7 0 416 0C405.3 0 394.7 0 384 0C373.3 0 362.7 0 352 0C341.3 0 330.7 0 320 0C309.3 0 298.7 0 288 0C277.3 0 266.7 0 256 0C245.3 0 234.7 0 224 0C213.3 0 202.7 0 192 0C181.3 0 170.7 0 160 0C149.3 0 138.7 0 128 0C117.3 0 106.7 0 96 0C85.3 0 74.7 0 64 0C53.3 0 42.7 0 32 0C21.3 0 10.7 0 5.3 0L0 0Z" fill="#082c3a" stroke-linecap="round" stroke-linejoin="miter"></path></svg>